<?xml version="1.0" encoding="UTF-8"?>
<svg version="1.1" xmlns="http://www.w3.org/2000/svg" width="256" height="256">
<path d="M0 0 C6.6 0 13.2 0 20 0 C20 1.32 20 2.64 20 4 C20.99 4.33 21.98 4.66 23 5 C23 7.31 23 9.62 23 12 C22.01 12.33 21.02 12.66 20 13 C20.33 20.59 20.66 28.18 21 36 C21.66 36.33 22.32 36.66 23 37 C23 40.3 23 43.6 23 47 C23.99 47.33 24.98 47.66 26 48 C26.33 49.98 26.66 51.96 27 54 C27.99 54 28.98 54 30 54 C30 51.69 30 49.38 30 47 C30.99 47 31.98 47 33 47 C33 44.03 33 41.06 33 38 C34.32 37.67 35.64 37.34 37 37 C37 36.01 37 35.02 37 34 C41.29 34 45.58 34 50 34 C50 34.99 50 35.98 50 37 C50.99 37 51.98 37 53 37 C53 37.99 53 38.98 53 40 C54.32 40.33 55.64 40.66 57 41 C57 41.99 57 42.98 57 44 C57.99 44 58.98 44 60 44 C60 45.32 60 46.64 60 48 C60.99 48.33 61.98 48.66 63 49 C63 50.65 63 52.3 63 54 C64.32 54.33 65.64 54.66 67 55 C67 56.98 67 58.96 67 61 C67.99 61 68.98 61 70 61 C70 62.98 70 64.96 70 67 C70.99 67.33 71.98 67.66 73 68 C74.1577506 71.47325181 74.06866652 74.36067448 74 78 C74.99 78 75.98 78 77 78 C77 83.61 77 89.22 77 95 C77.99 95 78.98 95 80 95 C80 102.59 80 110.18 80 118 C81.32 118 82.64 118 84 118 C84 117.01 84 116.02 84 115 C85.32 115 86.64 115 88 115 C88.33 114.01 88.66 113.02 89 112 C91.48754786 110.75622607 93.22655301 110.86693765 96 110.875 C96.886875 110.87242188 97.77375 110.86984375 98.6875 110.8671875 C101 111 101 111 103 112 C103.96958001 114.90874004 104.12880274 116.78989791 104.1328125 119.81640625 C104.13410156 120.74517578 104.13539063 121.67394531 104.13671875 122.63085938 C104.13285156 123.59830078 104.12898437 124.56574219 104.125 125.5625 C104.12886719 126.53380859 104.13273438 127.50511719 104.13671875 128.50585938 C104.13478516 129.89708008 104.13478516 129.89708008 104.1328125 131.31640625 C104.13168457 132.16662354 104.13055664 133.01684082 104.12939453 133.89282227 C104 136 104 136 103 138 C102.34 138 101.68 138 101 138 C100.67 142.29 100.34 146.58 100 151 C99.01 151 98.02 151 97 151 C97 153.31 97 155.62 97 158 C96.01 158 95.02 158 94 158 C94 159.98 94 161.96 94 164 C92.68 164.33 91.36 164.66 90 165 C90 166.98 90 168.96 90 171 C89.01 171.33 88.02 171.66 87 172 C86.67 173.98 86.34 175.96 86 178 C85.34 178 84.68 178 84 178 C83.67 179.32 83.34 180.64 83 182 C82.01 182 81.02 182 80 182 C80 182.99 80 183.98 80 185 C79.01 185 78.02 185 77 185 C77 185.99 77 186.98 77 188 C76.01 188 75.02 188 74 188 C73.67 189.32 73.34 190.64 73 192 C72.01 192 71.02 192 70 192 C70 192.99 70 193.98 70 195 C69.01 195 68.02 195 67 195 C67 195.99 67 196.98 67 198 C65.68 198.33 64.36 198.66 63 199 C63 199.99 63 200.98 63 202 C62.195625 202.12375 61.39125 202.2475 60.5625 202.375 C59.716875 202.58125 58.87125 202.7875 58 203 C57.67 203.66 57.34 204.32 57 205 C55.68 205 54.36 205 53 205 C52.67 206.32 52.34 207.64 52 209 C50.35 209 48.7 209 47 209 C46.67 209.99 46.34 210.98 46 212 C44.02 212 42.04 212 40 212 C40 212.99 40 213.98 40 215 C37.69 215 35.38 215 33 215 C32.67 216.32 32.34 217.64 32 219 C29.03 219 26.06 219 23 219 C23 219.99 23 220.98 23 222 C22.14535156 222.04898438 21.29070312 222.09796875 20.41015625 222.1484375 C18.75306641 222.26058594 18.75306641 222.26058594 17.0625 222.375 C15.40927734 222.47941406 15.40927734 222.47941406 13.72265625 222.5859375 C12.82417969 222.72257813 11.92570313 222.85921875 11 223 C10.67 223.66 10.34 224.32 10 225 C5.43855423 226.08795215 0.88855004 226.16045217 -3.77734375 226.16796875 C-4.50691788 226.17129715 -5.236492 226.17462555 -5.98817444 226.17805481 C-7.52360407 226.18309291 -9.05904454 226.1854641 -10.59448242 226.18530273 C-12.92710596 226.18749025 -15.25925672 226.20568161 -17.59179688 226.22460938 C-19.09114423 226.22754387 -20.59049381 226.22952829 -22.08984375 226.23046875 C-23.12297951 226.24124702 -23.12297951 226.24124702 -24.17698669 226.25224304 C-28.84419849 226.23051325 -32.61200227 225.43890398 -37 224 C-37 223.34 -37 222.68 -37 222 C-40.3 222 -43.6 222 -47 222 C-47 221.01 -47 220.02 -47 219 C-48.6396875 219.0309375 -48.6396875 219.0309375 -50.3125 219.0625 C-54 219 -54 219 -57 218 C-57 217.01 -57 216.02 -57 215 C-59.31 215 -61.62 215 -64 215 C-64 214.01 -64 213.02 -64 212 C-66.31 211.67 -68.62 211.34 -71 211 C-71 210.34 -71 209.68 -71 209 C-71.99 209 -72.98 209 -74 209 C-74 207.68 -74 206.36 -74 205 C-76.31 205 -78.62 205 -81 205 C-81 204.01 -81 203.02 -81 202 C-81.8971875 201.8453125 -81.8971875 201.8453125 -82.8125 201.6875 C-85.33421352 200.89496146 -86.39685699 200.08408591 -88 198 C-88 197.01 -88 196.02 -88 195 C-88.99 195 -89.98 195 -91 195 C-91 194.01 -91 193.02 -91 192 C-92.32 191.67 -93.64 191.34 -95 191 C-95 190.01 -95 189.02 -95 188 C-95.99 188 -96.98 188 -98 188 C-98 187.01 -98 186.02 -98 185 C-98.99 185 -99.98 185 -101 185 C-101 184.01 -101 183.02 -101 182 C-102.32 181.67 -103.64 181.34 -105 181 C-105 180.01 -105 179.02 -105 178 C-105.99 177.67 -106.98 177.34 -108 177 C-108 175.35 -108 173.7 -108 172 C-109.32 171.34 -110.64 170.68 -112 170 C-112 168.35 -112 166.7 -112 165 C-112.99 165 -113.98 165 -115 165 C-117.43425238 160.03006806 -118.34615998 156.65394631 -118 151 C-119.32 151 -120.64 151 -122 151 C-122 147.7 -122 144.4 -122 141 C-122.99 141 -123.98 141 -125 141 C-125.04898438 139.94039062 -125.09796875 138.88078125 -125.1484375 137.7890625 C-125.22346709 136.40101503 -125.29901485 135.01299549 -125.375 133.625 C-125.4059375 132.92632812 -125.436875 132.22765625 -125.46875 131.5078125 C-125.59499498 127.29814173 -125.59499498 127.29814173 -128 124 C-128.24291992 121.49389648 -128.24291992 121.49389648 -128.23046875 118.37109375 C-128.22853516 117.25412109 -128.22660156 116.13714844 -128.22460938 114.98632812 C-128.21236328 113.81521484 -128.20011719 112.64410156 -128.1875 111.4375 C-128.18685547 110.26251953 -128.18621094 109.08753906 -128.18554688 107.87695312 C-128.14012141 99.14012141 -128.14012141 99.14012141 -127 98 C-124.46950598 97.92686433 -121.96695163 97.90752473 -119.4375 97.9375 C-118.72658203 97.94201172 -118.01566406 97.94652344 -117.28320312 97.95117188 C-115.52209987 97.96299136 -113.76103964 97.98092737 -112 98 C-112 98.99 -112 99.98 -112 101 C-111.01 101 -110.02 101 -109 101 C-108.67 95.39 -108.34 89.78 -108 84 C-107.01 84 -106.02 84 -105 84 C-105 79.71 -105 75.42 -105 71 C-103.68 71 -102.36 71 -101 71 C-101 67.7 -101 64.4 -101 61 C-100.01 61 -99.02 61 -98 61 C-98 58.69 -98 56.38 -98 54 C-97.01 54 -96.02 54 -95 54 C-94.67 52.02 -94.34 50.04 -94 48 C-93.01 47.67 -92.02 47.34 -91 47 C-91 46.01 -91 45.02 -91 44 C-90.01 44 -89.02 44 -88 44 C-87.67 42.68 -87.34 41.36 -87 40 C-85.06257659 39.97296619 -83.12504521 39.95358875 -81.1875 39.9375 C-79.56908203 39.92009766 -79.56908203 39.92009766 -77.91796875 39.90234375 C-75 40 -75 40 -72 41 C-71.29618843 42.98723268 -70.6288189 44.98777953 -70 47 C-69.01 47.495 -69.01 47.495 -68 48 C-68 49.98 -68 51.96 -68 54 C-66.68 54 -65.36 54 -64 54 C-64 52.35 -64 50.7 -64 49 C-63.01 48.67 -62.02 48.34 -61 48 C-61 46.68 -61 45.36 -61 44 C-60.01 44 -59.02 44 -58 44 C-58 43.01 -58 42.02 -58 41 C-56.68 40.67 -55.36 40.34 -54 40 C-54 39.01 -54 38.02 -54 37 C-53.01 37 -52.02 37 -51 37 C-51 36.01 -51 35.02 -51 34 C-50.01 33.67 -49.02 33.34 -48 33 C-47.67 32.01 -47.34 31.02 -47 30 C-46.01 30 -45.02 30 -44 30 C-44 29.01 -44 28.02 -44 27 C-43.01 27 -42.02 27 -41 27 C-40.505 25.515 -40.505 25.515 -40 24 C-37.0974856 21.96039529 -34.49158202 20.64658926 -31 20 C-31 19.01 -31 18.02 -31 17 C-29.68 17 -28.36 17 -27 17 C-27 16.01 -27 15.02 -27 14 C-26.030625 13.71125 -25.06125 13.4225 -24.0625 13.125 C-20.89335797 12.35785318 -20.89335797 12.35785318 -20 10 C-18.02 10 -16.04 10 -14 10 C-14 9.01 -14 8.02 -14 7 C-11.69 7 -9.38 7 -7 7 C-6.67 5.68 -6.34 4.36 -6 3 C-4.02 3 -2.04 3 0 3 C0 2.01 0 1.02 0 0 Z " fill="#FA7368" transform="translate(139,14)"/>
<path d="M0 0 C1.22589844 0.01353516 1.22589844 0.01353516 2.4765625 0.02734375 C3.10304688 0.03894531 3.72953125 0.05054688 4.375 0.0625 C4.43107422 1.13564453 4.43107422 1.13564453 4.48828125 2.23046875 C5.03433092 10.50686858 5.6987531 19.72905421 9.47265625 27.25 C10.375 29.0625 10.375 29.0625 10.375 32.0625 C11.035 32.0625 11.695 32.0625 12.375 32.0625 C12.77332031 32.88234375 13.17164063 33.7021875 13.58203125 34.546875 C14.11183594 35.62453125 14.64164062 36.7021875 15.1875 37.8125 C15.70957031 38.87984375 16.23164063 39.9471875 16.76953125 41.046875 C18.245171 44.02095191 18.245171 44.02095191 20.07421875 46.265625 C21.375 48.0625 21.375 48.0625 21.375 51.0625 C22.86 51.5575 22.86 51.5575 24.375 52.0625 C24.375 53.7125 24.375 55.3625 24.375 57.0625 C25.86 57.5575 25.86 57.5575 27.375 58.0625 C28.42964649 60.0342304 29.42105164 62.04012948 30.375 64.0625 C32.0481975 67.44872776 32.0481975 67.44872776 34.375 70.0625 C37.33125267 70.9793463 37.33125267 70.9793463 40.375 70.0625 C43.58170904 67.43882897 45.8073428 64.91038585 47.375 61.0625 C48.035 61.0625 48.695 61.0625 49.375 61.0625 C49.705 60.0725 50.035 59.0825 50.375 58.0625 C51.375 57.0625 52.375 56.0625 53.375 55.0625 C53.82875 54.19625 54.2825 53.33 54.75 52.4375 C56.375 50.0625 56.375 50.0625 59.0625 49.25 C59.825625 49.188125 60.58875 49.12625 61.375 49.0625 C61.375 49.7225 61.375 50.3825 61.375 51.0625 C62.695 51.0625 64.015 51.0625 65.375 51.0625 C68.0789577 58.31402293 69.36822726 65.39918281 70.375 73.0625 C70.705 73.0625 71.035 73.0625 71.375 73.0625 C71.42434926 78.72248046 71.46069529 84.38233636 71.48486328 90.04248047 C71.49493582 91.96893494 71.50859443 93.89537408 71.52587891 95.82177734 C71.55007241 98.58695252 71.56147036 101.351926 71.5703125 104.1171875 C71.58063507 104.9818161 71.59095764 105.8464447 71.60159302 106.73727417 C71.60199106 108.84703521 71.49765243 110.95630718 71.375 113.0625 C70.715 113.7225 70.055 114.3825 69.375 115.0625 C68.91493654 117.26500992 68.91493654 117.26500992 68.75 119.6875 C68.67523438 120.50476563 68.60046875 121.32203125 68.5234375 122.1640625 C68.44996094 123.10378906 68.44996094 123.10378906 68.375 124.0625 C69.43460938 124.12308594 70.49421875 124.18367188 71.5859375 124.24609375 C72.97397221 124.33050127 74.36199232 124.41514917 75.75 124.5 C76.44867188 124.53931641 77.14734375 124.57863281 77.8671875 124.61914062 C83.1484375 124.94921875 83.1484375 124.94921875 85.375 126.0625 C85.7101832 130.86679259 84.91635789 133.05497409 82.375 137.0625 C81.65333809 139.37941454 80.97440471 141.71098923 80.375 144.0625 C79.715 144.0625 79.055 144.0625 78.375 144.0625 C78.2925 144.805 78.21 145.5475 78.125 146.3125 C77.20747342 149.67676412 76.11280488 150.93309621 73.375 153.0625 C72.50875 153.2275 71.6425 153.3925 70.75 153.5625 C69.96625 153.7275 69.1825 153.8925 68.375 154.0625 C67.0580333 155.94620471 67.0580333 155.94620471 66.375 158.0625 C65.375 160.0625 65.375 160.0625 63.1875 160.875 C60.61431613 161.96145541 59.29244018 162.87935471 57.25 164.6875 C54.375 167.0625 54.375 167.0625 51.375 167.0625 C51.375 167.7225 51.375 168.3825 51.375 169.0625 C49.725 169.3925 48.075 169.7225 46.375 170.0625 C46.375 170.7225 46.375 171.3825 46.375 172.0625 C45.715 172.0625 45.055 172.0625 44.375 172.0625 C44.375 170.4125 44.375 168.7625 44.375 167.0625 C45.035 166.7325 45.695 166.4025 46.375 166.0625 C47.48011341 163.35564326 48.36183351 160.60040162 49.27734375 157.82421875 C50.375 155.0625 50.375 155.0625 51.83886719 153.26733398 C58.44095512 143.79126022 56.732643 128.6922207 56.5625 117.6875 C56.54740912 115.96876187 56.53372859 114.25001076 56.52148438 112.53125 C56.488866 108.37467149 56.43733393 104.21873469 56.375 100.0625 C55.715 100.0625 55.055 100.0625 54.375 100.0625 C54.09785156 99.29164063 53.82070312 98.52078125 53.53515625 97.7265625 C53.17292969 96.72367187 52.81070313 95.72078125 52.4375 94.6875 C52.07785156 93.68976563 51.71820313 92.69203125 51.34765625 91.6640625 C50.45150708 89.12745835 50.45150708 89.12745835 49.375 87.0625 C46.34565509 86.40477572 46.34565509 86.40477572 43.375 86.0625 C43.045 87.0525 42.715 88.0425 42.375 89.0625 C41.715 89.0625 41.055 89.0625 40.375 89.0625 C40.00375 90.114375 40.00375 90.114375 39.625 91.1875 C38.19549359 94.47536474 36.55801951 97.21795943 34.375 100.0625 C33.385 100.0625 32.395 100.0625 31.375 100.0625 C31.375 100.7225 31.375 101.3825 31.375 102.0625 C28.38905576 103.55547212 25.66646376 103.18005228 22.375 103.0625 C21.715 102.7325 21.055 102.4025 20.375 102.0625 C20.375 101.0725 20.375 100.0825 20.375 99.0625 C19.715 99.0625 19.055 99.0625 18.375 99.0625 C18.375 97.0825 18.375 95.1025 18.375 93.0625 C17.715 93.0625 17.055 93.0625 16.375 93.0625 C16.19324219 92.12277344 16.19324219 92.12277344 16.0078125 91.1640625 C15.84023437 90.34679687 15.67265625 89.52953125 15.5 88.6875 C15.33757812 87.87539062 15.17515625 87.06328125 15.0078125 86.2265625 C14.50841068 83.87576077 14.50841068 83.87576077 12.375 82.0625 C10.9719958 77.77095775 10.02828585 73.52661996 9.375 69.0625 C7.395 68.5675 7.395 68.5675 5.375 68.0625 C5.375 66.4125 5.375 64.7625 5.375 63.0625 C4.385 63.0625 3.395 63.0625 2.375 63.0625 C1.9625 62.010625 1.55 60.95875 1.125 59.875 C-0.33243051 56.4582879 -2.22575408 53.91160453 -4.625 51.0625 C-5.12 50.19625 -5.615 49.33 -6.125 48.4375 C-7.73300865 45.89148631 -9.0226885 44.56080056 -11.625 43.0625 C-12.945 43.0625 -14.265 43.0625 -15.625 43.0625 C-15.99625 44.5475 -15.99625 44.5475 -16.375 46.0625 C-17.17896466 48.93710744 -18.26146577 51.3812826 -19.6875 54 C-21.20361516 56.86998921 -21.92867681 59.20674134 -22.25 62.4375 C-22.625 66.0625 -22.625 66.0625 -24.625 68.0625 C-24.893125 68.805 -25.16125 69.5475 -25.4375 70.3125 C-26.99107758 73.9102586 -28.95391819 76.19108705 -31.625 79.0625 C-32.285 79.0625 -32.945 79.0625 -33.625 79.0625 C-35.65665952 83.39670699 -36.14560632 87.34846212 -36.625 92.0625 C-37.615 92.3925 -38.605 92.7225 -39.625 93.0625 C-40.21570014 95.00853274 -40.21570014 95.00853274 -40.625 97.0625 C-43.07451358 99.51201358 -43.92924538 99.4119214 -47.3125 99.5 C-52.09751526 99.43105165 -54.48000685 98.26706771 -58.0859375 95.2421875 C-60.14365309 93.66495372 -62.07332412 93.29447053 -64.625 93.0625 C-64.625 92.0725 -64.625 91.0825 -64.625 90.0625 C-66.275 90.0625 -67.925 90.0625 -69.625 90.0625 C-69.563125 90.990625 -69.50125 91.91875 -69.4375 92.875 C-69.42097324 96.19026792 -70.10056987 98.87630309 -71.09375 102.03125 C-72.85456751 108.2834281 -73.17389981 114.28331116 -73.3125 120.75 C-73.34666016 121.84505859 -73.38082031 122.94011719 -73.41601562 124.06835938 C-73.49746661 126.73297023 -73.56694221 129.39729462 -73.625 132.0625 C-72.965 132.0625 -72.305 132.0625 -71.625 132.0625 C-69.37671948 136.55906104 -69.45817728 140.14122966 -69.625 145.0625 C-68.965 145.0625 -68.305 145.0625 -67.625 145.0625 C-67.295 148.3625 -66.965 151.6625 -66.625 155.0625 C-65.635 155.3925 -64.645 155.7225 -63.625 156.0625 C-63.295 158.0425 -62.965 160.0225 -62.625 162.0625 C-61.965 162.0625 -61.305 162.0625 -60.625 162.0625 C-58.4375 163.8125 -58.4375 163.8125 -56.625 166.0625 C-56.875 168.3125 -56.875 168.3125 -57.625 170.0625 C-62.375 171.1875 -62.375 171.1875 -64.625 170.0625 C-64.625 168.7425 -64.625 167.4225 -64.625 166.0625 C-65.47771484 165.876875 -65.47771484 165.876875 -66.34765625 165.6875 C-73.19362563 163.85886043 -76.5048691 160.70900064 -80.625 155.0625 C-81.06070313 154.47339844 -81.49640625 153.88429687 -81.9453125 153.27734375 C-84.625 149.46394231 -84.625 149.46394231 -84.625 147.0625 C-85.945 147.0625 -87.265 147.0625 -88.625 147.0625 C-88.955 146.0725 -89.285 145.0825 -89.625 144.0625 C-90.285 143.7325 -90.945 143.4025 -91.625 143.0625 C-92.6953125 141.06640625 -92.6953125 141.06640625 -93.75 138.625 C-94.10320312 137.82191406 -94.45640625 137.01882812 -94.8203125 136.19140625 C-95.625 134.0625 -95.625 134.0625 -95.625 132.0625 C-96.615 131.7325 -97.605 131.4025 -98.625 131.0625 C-98.8486337 129.64816794 -99.05326476 128.23082382 -99.25 126.8125 C-99.36601563 126.02359375 -99.48203125 125.2346875 -99.6015625 124.421875 C-99.62819395 121.74097541 -98.99092084 120.33555911 -97.625 118.0625 C-95.315 118.0625 -93.005 118.0625 -90.625 118.0625 C-90.625 119.0525 -90.625 120.0425 -90.625 121.0625 C-88.975 121.0625 -87.325 121.0625 -85.625 121.0625 C-85.955 118.7525 -86.285 116.4425 -86.625 114.0625 C-87.285 114.0625 -87.945 114.0625 -88.625 114.0625 C-88.625 97.2325 -88.625 80.4025 -88.625 63.0625 C-87.635 62.5675 -87.635 62.5675 -86.625 62.0625 C-85.89424352 59.7484378 -85.22361742 57.41421131 -84.625 55.0625 C-82.315 55.0625 -80.005 55.0625 -77.625 55.0625 C-77.295 56.0525 -76.965 57.0425 -76.625 58.0625 C-75.965 58.0625 -75.305 58.0625 -74.625 58.0625 C-74.521875 58.701875 -74.41875 59.34125 -74.3125 60 C-74.085625 60.680625 -73.85875 61.36125 -73.625 62.0625 C-72.14 62.5575 -72.14 62.5575 -70.625 63.0625 C-70.33625 63.7225 -70.0475 64.3825 -69.75 65.0625 C-68.7696618 67.35400599 -68.7696618 67.35400599 -66 67.8125 C-65.21625 67.895 -64.4325 67.9775 -63.625 68.0625 C-63.295 67.4025 -62.965 66.7425 -62.625 66.0625 C-61.965 66.0625 -61.305 66.0625 -60.625 66.0625 C-60.625 64.7425 -60.625 63.4225 -60.625 62.0625 C-58.050698 59.07074362 -56.39422693 57.31890898 -52.625 56.0625 C-52.625 55.0725 -52.625 54.0825 -52.625 53.0625 C-51.965 53.0625 -51.305 53.0625 -50.625 53.0625 C-50.521875 52.47597656 -50.41875 51.88945313 -50.3125 51.28515625 C-49.51758043 48.71521742 -48.44745581 47.45826382 -46.625 45.5 C-44.50666863 43.21362792 -43.63582314 42.09496941 -42.625 39.0625 C-41.965 38.7325 -41.305 38.4025 -40.625 38.0625 C-40.58375 37.19625 -40.5425 36.33 -40.5 35.4375 C-39.18254145 30.35587415 -35.61413285 28.24449313 -31.625 25.0625 C-28.35048038 22.06705767 -28.35048038 22.06705767 -26.625 18.0625 C-25.635 17.7325 -24.645 17.4025 -23.625 17.0625 C-23.026875 16.27875 -22.42875 15.495 -21.8125 14.6875 C-19.32244882 11.69943858 -17.09805262 10.72667105 -13.625 9.0625 C-12.27302142 7.74807638 -10.93473998 6.4190164 -9.625 5.0625 C-8.965 5.0625 -8.305 5.0625 -7.625 5.0625 C-7.439375 4.1034375 -7.439375 4.1034375 -7.25 3.125 C-7.04375 2.444375 -6.8375 1.76375 -6.625 1.0625 C-4.21954362 -0.14022819 -2.67503047 -0.03821472 0 0 Z " fill="#FDC733" transform="translate(133.625,37.9375)"/>
<path d="M0 0 C1 1 1 1 1.0625 4.0625 C1.041875 5.031875 1.02125 6.00125 1 7 C1.66 7 2.32 7 3 7 C3.19055047 11.76376184 3.07190488 15.64899976 1 20 C-1.125 20.875 -1.125 20.875 -3 21 C-3 21.99 -3 22.98 -3 24 C-8.67812314 26.43348135 -12.81388728 27.69843208 -19 27 C-22.5 25.125 -22.5 25.125 -25 23 C-25 22.34 -25 21.68 -25 21 C-25.99 20.67 -26.98 20.34 -28 20 C-31.04516748 15.50863258 -30.50823486 10.19785657 -30 5 C-28.6875 1.875 -28.6875 1.875 -27 0 C-26.01 -0.33 -25.02 -0.66 -24 -1 C-23.67 -1.99 -23.34 -2.98 -23 -4 C-14.48766583 -5.96438481 -7.38118111 -4.51909048 0 0 Z " fill="#FBF6F6" transform="translate(174,167)"/>
<path d="M0 0 C2.31 0 4.62 0 7 0 C7.33 0.99 7.66 1.98 8 3 C8.66 3 9.32 3 10 3 C10.33 4.32 10.66 5.64 11 7 C10.34 6.67 9.68 6.34 9 6 C9 5.34 9 4.68 9 4 C8.01 4 7.02 4 6 4 C6 3.01 6 2.02 6 1 C3.37659443 2.60703546 2.17224627 3.46883663 1.20703125 6.4453125 C1.07683594 7.32960938 0.94664063 8.21390625 0.8125 9.125 C0.06689537 13.93310463 0.06689537 13.93310463 -1 15 C-1.08858646 17.73894085 -1.11523479 20.4525327 -1.09765625 23.19140625 C-1.09553383 24.42116432 -1.09553383 24.42116432 -1.09336853 25.67576599 C-1.08775289 28.30471382 -1.07519779 30.93357773 -1.0625 33.5625 C-1.05748701 35.34049357 -1.05292376 37.11848846 -1.04882812 38.89648438 C-1.03777839 43.26435545 -1.02050331 47.63216348 -1 52 C-0.34 52 0.32 52 1 52 C1 58.27 1 64.54 1 71 C-3.29 70.34 -7.58 69.68 -12 69 C-12 70.32 -12 71.64 -12 73 C-11.01 73 -10.02 73 -9 73 C-8.77213542 74.98567708 -8.54427083 76.97135417 -8.31640625 78.95703125 C-8.02829265 81.19396393 -8.02829265 81.19396393 -7 84 C-4.49552484 85.21869929 -4.49552484 85.21869929 -2 86 C-2 87.32 -2 88.64 -2 90 C-1.01 90 -0.02 90 1 90 C1 90.99 1 91.98 1 93 C1.5775 93.020625 2.155 93.04125 2.75 93.0625 C5.79935486 94.33306453 6.45750097 96.3792748 7.91796875 99.21875 C9.45969862 101.75676018 11.6490658 103.23679935 14 105 C14 105.66 14 106.32 14 107 C15.65 107.33 17.3 107.66 19 108 C19.495 106.02 19.495 106.02 20 104 C18.68 103.67 17.36 103.34 16 103 C15.67 100.36 15.34 97.72 15 95 C14.34 95 13.68 95 13 95 C10.31568981 84.89460142 9.52457948 75.51019743 9.60888672 65.11230469 C9.62507942 62.73835673 9.60888572 60.36608672 9.58984375 57.9921875 C9.56307061 41.17251088 9.56307061 41.17251088 13 35 C16.34974958 32 16.34974958 32 19.375 32 C23.02263617 33.38957568 25.1706798 35.30227609 28 38 C28 38.66 28 39.32 28 40 C25.36 39.34 22.72 38.68 20 38 C20 37.01 20 36.02 20 35 C18.35 35 16.7 35 15 35 C15.061875 35.928125 15.12375 36.85625 15.1875 37.8125 C15.20402676 41.12776792 14.52443013 43.81380309 13.53125 46.96875 C11.77043249 53.2209281 11.45110019 59.22081116 11.3125 65.6875 C11.27833984 66.78255859 11.24417969 67.87761719 11.20898438 69.00585938 C11.12753339 71.67047023 11.05805779 74.33479462 11 77 C11.66 77 12.32 77 13 77 C15.24828052 81.49656104 15.16682272 85.07872966 15 90 C15.66 90 16.32 90 17 90 C17.495 94.95 17.495 94.95 18 100 C18.99 100.33 19.98 100.66 21 101 C21.33 102.98 21.66 104.96 22 107 C22.66 107 23.32 107 24 107 C26.1875 108.75 26.1875 108.75 28 111 C27.75 113.25 27.75 113.25 27 115 C22.25 116.125 22.25 116.125 20 115 C20 113.68 20 112.36 20 111 C19.14728516 110.814375 19.14728516 110.814375 18.27734375 110.625 C11.43137437 108.79636043 8.1201309 105.64650064 4 100 C3.56429687 99.41089844 3.12859375 98.82179688 2.6796875 98.21484375 C0 94.40144231 0 94.40144231 0 92 C-1.32 92 -2.64 92 -4 92 C-4.33 91.01 -4.66 90.02 -5 89 C-5.66 88.67 -6.32 88.34 -7 88 C-8.0703125 86.00390625 -8.0703125 86.00390625 -9.125 83.5625 C-9.47820313 82.75941406 -9.83140625 81.95632812 -10.1953125 81.12890625 C-11 79 -11 79 -11 77 C-11.99 76.67 -12.98 76.34 -14 76 C-14.2236337 74.58566794 -14.42826476 73.16832382 -14.625 71.75 C-14.74101563 70.96109375 -14.85703125 70.1721875 -14.9765625 69.359375 C-15.00319395 66.67847541 -14.36592084 65.27305911 -13 63 C-10.69 63 -8.38 63 -6 63 C-6 63.99 -6 64.98 -6 66 C-4.35 66 -2.7 66 -1 66 C-1.33 63.69 -1.66 61.38 -2 59 C-2.66 59 -3.32 59 -4 59 C-4 42.17 -4 25.34 -4 8 C-3.34 7.67 -2.68 7.34 -2 7 C-1.26924352 4.6859378 -0.59861742 2.35171131 0 0 Z " fill="#FC9752" transform="translate(49,93)"/>
<path d="M0 0 C2.36945743 1.69246959 2.78353805 3.55771313 3.75 6.25 C4.41 6.58 5.07 6.91 5.75 7.25 C6.08333333 8.58333333 6.41666667 9.91666667 6.75 11.25 C7.41 11.58 8.07 11.91 8.75 12.25 C8.75 13.24 8.75 14.23 8.75 15.25 C9.41 15.25 10.07 15.25 10.75 15.25 C11.1625 16.11625 11.575 16.9825 12 17.875 C13.68363575 21.28518733 13.68363575 21.28518733 15.875 24.375 C17.47865982 26.83394506 18.31180832 28.40175409 18.75 31.25 C19.74 31.25 20.73 31.25 21.75 31.25 C22.1625 32.36375 22.575 33.4775 23 34.625 C24.26420444 37.99019183 25.5565216 41.34318436 26.875 44.6875 C27.37386719 45.95400391 27.37386719 45.95400391 27.8828125 47.24609375 C28.586283 49.2089886 28.586283 49.2089886 29.75 50.25 C30.02953219 52.3087768 30.19734351 54.36728432 30.37109375 56.4375 C30.49613281 57.035625 30.62117188 57.63375 30.75 58.25 C31.41 58.58 32.07 58.91 32.75 59.25 C32.75 59.91 32.75 60.57 32.75 61.25 C34.73 61.25 36.71 61.25 38.75 61.25 C38.75 60.59 38.75 59.93 38.75 59.25 C39.74 58.92 40.73 58.59 41.75 58.25 C42.245 57.26 42.245 57.26 42.75 56.25 C43.41 56.58 44.07 56.91 44.75 57.25 C44.09 58.24 43.43 59.23 42.75 60.25 C41.76 60.25 40.77 60.25 39.75 60.25 C39.75 60.91 39.75 61.57 39.75 62.25 C36.76405576 63.74297212 34.04146376 63.36755228 30.75 63.25 C30.09 62.92 29.43 62.59 28.75 62.25 C28.75 61.26 28.75 60.27 28.75 59.25 C28.09 59.25 27.43 59.25 26.75 59.25 C26.75 57.27 26.75 55.29 26.75 53.25 C26.09 53.25 25.43 53.25 24.75 53.25 C24.62882812 52.62351563 24.50765625 51.99703125 24.3828125 51.3515625 C24.21523437 50.53429687 24.04765625 49.71703125 23.875 48.875 C23.71257812 48.06289062 23.55015625 47.25078125 23.3828125 46.4140625 C22.88341068 44.06326077 22.88341068 44.06326077 20.75 42.25 C19.3469958 37.95845775 18.40328585 33.71411996 17.75 29.25 C16.43 28.92 15.11 28.59 13.75 28.25 C13.75 26.6 13.75 24.95 13.75 23.25 C12.76 23.25 11.77 23.25 10.75 23.25 C10.3375 22.198125 9.925 21.14625 9.5 20.0625 C8.04256949 16.6457879 6.14924592 14.09910453 3.75 11.25 C3.255 10.38375 2.76 9.5175 2.25 8.625 C0.64199135 6.07898631 -0.6476885 4.74830056 -3.25 3.25 C-4.57 3.25 -5.89 3.25 -7.25 3.25 C-7.4975 4.24 -7.745 5.23 -8 6.25 C-8.80396466 9.12460744 -9.88646577 11.5687826 -11.3125 14.1875 C-12.82861516 17.05748921 -13.55367681 19.39424134 -13.875 22.625 C-14.25 26.25 -14.25 26.25 -16.25 28.25 C-16.518125 28.9925 -16.78625 29.735 -17.0625 30.5 C-18.61607758 34.0977586 -20.57891819 36.37858705 -23.25 39.25 C-23.91 39.25 -24.57 39.25 -25.25 39.25 C-27.28165952 43.58420699 -27.77060632 47.53596212 -28.25 52.25 C-29.735 52.745 -29.735 52.745 -31.25 53.25 C-31.84070014 55.19603274 -31.84070014 55.19603274 -32.25 57.25 C-34.74040942 59.74040942 -35.68154357 59.57391014 -39.125 59.625 C-42.79179392 59.57201165 -43.88110884 59.53105993 -46.875 57.25 C-47.32875 56.59 -47.7825 55.93 -48.25 55.25 C-42.375 56.125 -42.375 56.125 -41.25 57.25 C-38.29182893 57.50005386 -38.29182893 57.50005386 -35.25 57.25 C-31.95787449 53.95787449 -31.34549994 50.17316612 -30.875 45.625 C-30.16331236 41.78188672 -29.17194554 40.71539155 -26.25 38.25 C-25.92 37.59 -25.59 36.93 -25.25 36.25 C-24.59 36.25 -23.93 36.25 -23.25 36.25 C-23.25 33.94 -23.25 31.63 -23.25 29.25 C-22.59 28.92 -21.93 28.59 -21.25 28.25 C-20.92 27.095 -20.59 25.94 -20.25 24.75 C-19.92 23.595 -19.59 22.44 -19.25 21.25 C-18.59 20.92 -17.93 20.59 -17.25 20.25 C-16.54508733 17.92793475 -15.87787571 15.59406932 -15.25 13.25 C-14.92 12.92 -14.59 12.59 -14.25 12.25 C-14.14489264 10.64711274 -14.0657972 9.04248158 -14 7.4375 C-13.65339602 3.71550649 -13.48920468 2.54388003 -11.0625 -0.4375 C-6.86087886 -2.39825653 -4.23541282 -1.41180427 0 0 Z " fill="#FC9056" transform="translate(125.25,77.75)"/>
<path d="M0 0 C5.0837502 -0.77319395 11.36109309 -1.4379981 16 1.08984375 C17.3125 2.4375 17.3125 2.4375 19 5 C19.33 5.33 19.66 5.66 20 6 C20.14115161 8.67058851 20.04247107 11.32432238 20 14 C15.125 9.25 15.125 9.25 14 7 C12.37581255 6.91909029 10.75048255 6.86085005 9.125 6.8125 C8.22007813 6.77769531 7.31515625 6.74289063 6.3828125 6.70703125 C5.59648438 6.80371094 4.81015625 6.90039062 4 7 C1.6622501 10.50662485 1.6701038 11.87629745 2 16 C2.66 17.65 3.32 19.3 4 21 C7.63 20.67 11.26 20.34 15 20 C15.33 19.01 15.66 18.02 16 17 C16.99 17 17.98 17 19 17 C19.33 16.34 19.66 15.68 20 15 C19.979375 16.11375 19.95875 17.2275 19.9375 18.375 C19.73619282 21.83215921 19.73619282 21.83215921 21 24 C20.34 24 19.68 24 19 24 C19 24.99 19 25.98 19 27 C13.71448873 29.53704541 9.71982172 31.17468054 3.84765625 29.3203125 C1.88030827 28.59422625 -0.06228156 27.80181453 -2 27 C-2 26.01 -2 25.02 -2 24 C-2.99 23.67 -3.98 23.34 -5 23 C-6.51714839 19.96570323 -6.14363916 16.82398333 -6.125 13.5 C-6.12886719 12.81035156 -6.13273437 12.12070313 -6.13671875 11.41015625 C-6.12666646 6.25333293 -6.12666646 6.25333293 -5 4 C-4.01 3.67 -3.02 3.34 -2 3 C-1.34 2.01 -0.68 1.02 0 0 Z " fill="#FBFAFA" transform="translate(85,164)"/>
<path d="M0 0 C1.16781006 0.00523682 2.33562012 0.01047363 3.53881836 0.01586914 C4.79887695 0.0190918 6.05893555 0.02231445 7.35717773 0.02563477 C8.6976732 0.03399136 10.03816799 0.04245632 11.37866211 0.05102539 C12.72306153 0.05603879 14.06746271 0.06060197 15.41186523 0.06469727 C18.71334151 0.07653051 22.01473014 0.09301568 25.31616211 0.11352539 C25.31616211 3.74352539 25.31616211 7.37352539 25.31616211 11.11352539 C23.99616211 11.44352539 22.67616211 11.77352539 21.31616211 12.11352539 C21.31616211 13.10352539 21.31616211 14.09352539 21.31616211 15.11352539 C12.84668142 18.55873787 8.7856428 18.55873787 0.31616211 15.11352539 C0.31616211 14.12352539 0.31616211 13.13352539 0.31616211 12.11352539 C-0.67383789 12.11352539 -1.66383789 12.11352539 -2.68383789 12.11352539 C-3.97833284 8.23004055 -3.81587101 5.20655203 -3.68383789 1.11352539 C-2.68383789 0.11352539 -2.68383789 0.11352539 0 0 Z " fill="#D36162" transform="translate(115.683837890625,192.886474609375)"/>
<path d="M0 0 C1.32 0 2.64 0 4 0 C4 0.66 4 1.32 4 2 C5.32 2 6.64 2 8 2 C10.7039577 9.25152293 11.99322726 16.33668281 13 24 C13.33 24 13.66 24 14 24 C14.04934926 29.65998046 14.08569529 35.31983636 14.10986328 40.97998047 C14.11993582 42.90643494 14.13359443 44.83287408 14.15087891 46.75927734 C14.17507241 49.52445252 14.18647036 52.289426 14.1953125 55.0546875 C14.20563507 55.9193161 14.21595764 56.7839447 14.22659302 57.67477417 C14.22699106 59.78453521 14.12265243 61.89380718 14 64 C13.01 64.99 13.01 64.99 12 66 C11.53993654 68.20250992 11.53993654 68.20250992 11.375 70.625 C11.30023438 71.44226563 11.22546875 72.25953125 11.1484375 73.1015625 C11.09945312 73.72804688 11.05046875 74.35453125 11 75 C12.05960938 75.06058594 13.11921875 75.12117188 14.2109375 75.18359375 C15.59897221 75.26800127 16.98699232 75.35264917 18.375 75.4375 C19.07367188 75.47681641 19.77234375 75.51613281 20.4921875 75.55664062 C25.7734375 75.88671875 25.7734375 75.88671875 28 77 C28.3351832 81.80429259 27.54135789 83.99247409 25 88 C24.27833809 90.31691454 23.59940471 92.64848923 23 95 C22.34 95 21.68 95 21 95 C20.9175 95.7425 20.835 96.485 20.75 97.25 C19.83247342 100.61426412 18.73780488 101.87059621 16 104 C15.13375 104.165 14.2675 104.33 13.375 104.5 C12.59125 104.665 11.8075 104.83 11 105 C9.6830333 106.88370471 9.6830333 106.88370471 9 109 C8 111 8 111 4.9375 112.125 C3.968125 112.41375 2.99875 112.7025 2 113 C3 110 3 110 5.75 108.1875 C9.38879907 105.73830832 11.30327573 103.42556866 14 100 C15.6875 98.125 15.6875 98.125 17 97 C17.66 97 18.32 97 19 97 C19.33 95.02 19.66 93.04 20 91 C20.99 91 21.98 91 23 91 C23.12375 90.34 23.2475 89.68 23.375 89 C24.14383097 85.30961135 25.08573175 81.65707301 26 78 C20.39 78 14.78 78 9 78 C8.74960876 63.85289515 8.74960876 63.85289515 10 59.59375 C11.2381888 55.144009 11.22110232 51.14953745 11.125 46.5625 C11.11146484 45.32209961 11.11146484 45.32209961 11.09765625 44.05664062 C11.07431512 42.03763292 11.03845288 40.01877644 11 38 C10.67 38 10.34 38 10 38 C9.00345515 33.79506683 8.83502157 29.7493448 8.6875 25.4375 C8.3360528 18.27490711 7.25702808 11.4915939 4 5 C3.01 4.34 2.02 3.68 1 3 C-2.11785113 3.64644661 -2.11785113 3.64644661 -3 6 C-2.42655063 3.13275314 -2.1385485 2.1385485 0 0 Z " fill="#FCA648" transform="translate(191,87)"/>
<path d="M0 0 C2.76276177 0.52268466 5.3260876 1.10869587 8 2 C8 3.32 8 4.64 8 6 C8.66 6 9.32 6 10 6 C11.34422204 10.03266611 11.45703395 13.78005323 11 18 C9.5 20.5625 9.5 20.5625 8 22 C6.68 21.67 5.36 21.34 4 21 C4.66 21 5.32 21 6 21 C5.505 18.525 5.505 18.525 5 16 C4.01 16 3.02 16 2 16 C1.67 17.32 1.34 18.64 1 20 C-2.70810411 20.28330167 -6.29985385 20.43113797 -10 20 C-12.73911279 17.33914758 -12.9170621 15.67732618 -13.375 11.9375 C-12.94709575 8.5855834 -12.34852049 7.38927573 -10 5 C-7.51953125 4.609375 -7.51953125 4.609375 -4.8125 4.75 C-3.91144531 4.78609375 -3.01039062 4.8221875 -2.08203125 4.859375 C-1.05142578 4.92898437 -1.05142578 4.92898437 0 5 C0.268125 5.804375 0.53625 6.60875 0.8125 7.4375 C1.204375 8.283125 1.59625 9.12875 2 10 C2.99 10.33 3.98 10.66 5 11 C5.41890218 8.21061788 5.41890218 8.21061788 5 5 C2.62499209 2.12359384 2.62499209 2.12359384 0 0 Z " fill="#EFE5E8" transform="translate(99,165)"/>
<path d="M0 0 C1.22589844 0.01353516 1.22589844 0.01353516 2.4765625 0.02734375 C3.41628906 0.04474609 3.41628906 0.04474609 4.375 0.0625 C4.41238281 0.77792969 4.44976562 1.49335937 4.48828125 2.23046875 C5.03433092 10.50686858 5.6987531 19.72905421 9.47265625 27.25 C10.375 29.0625 10.375 29.0625 10.375 32.0625 C11.035 32.0625 11.695 32.0625 12.375 32.0625 C12.77332031 32.88234375 13.17164063 33.7021875 13.58203125 34.546875 C14.11183594 35.62453125 14.64164063 36.7021875 15.1875 37.8125 C15.70957031 38.87984375 16.23164063 39.9471875 16.76953125 41.046875 C18.245171 44.02095191 18.245171 44.02095191 20.07421875 46.265625 C21.375 48.0625 21.375 48.0625 21.375 51.0625 C22.86 51.5575 22.86 51.5575 24.375 52.0625 C24.375 53.7125 24.375 55.3625 24.375 57.0625 C25.365 57.3925 26.355 57.7225 27.375 58.0625 C28.42964649 60.0342304 29.42105164 62.04012948 30.375 64.0625 C32.78534004 68.63869855 32.78534004 68.63869855 37.125 70.9375 C37.8675 70.97875 38.61 71.02 39.375 71.0625 C38.385 72.3825 37.395 73.7025 36.375 75.0625 C32.46505788 73.5794185 31.40445111 71.62418669 29.375 68.0625 C28.84519531 67.20269531 28.31539062 66.34289062 27.76953125 65.45703125 C27.24746094 64.60496094 26.72539062 63.75289062 26.1875 62.875 C25.65769531 62.01519531 25.12789062 61.15539062 24.58203125 60.26953125 C23.375 58.0625 23.375 58.0625 23.375 56.0625 C22.385 56.0625 21.395 56.0625 20.375 56.0625 C17.52148443 52.82315697 15.51029106 49.36129417 15.0625 45.0625 C15.165625 44.4025 15.26875 43.7425 15.375 43.0625 C14.385 43.0625 13.395 43.0625 12.375 43.0625 C12.375 40.7525 12.375 38.4425 12.375 36.0625 C11.385 36.0625 10.395 36.0625 9.375 36.0625 C9.045 33.7525 8.715 31.4425 8.375 29.0625 C7.385 28.7325 6.395 28.4025 5.375 28.0625 C5.32601562 27.44761719 5.27703125 26.83273438 5.2265625 26.19921875 C5.15179688 25.39097656 5.07703125 24.58273438 5 23.75 C4.93039063 22.94949219 4.86078125 22.14898437 4.7890625 21.32421875 C4.47935574 18.79025559 4.47935574 18.79025559 2.375 16.0625 C2.1796875 12.70703125 2.1796875 12.70703125 2.25 8.875 C2.26804688 7.60269531 2.28609375 6.33039062 2.3046875 5.01953125 C2.32789063 4.04371094 2.35109375 3.06789062 2.375 2.0625 C-0.925 2.7225 -4.225 3.3825 -7.625 4.0625 C-7.295 3.0725 -6.965 2.0825 -6.625 1.0625 C-4.21954362 -0.14022819 -2.67503047 -0.03821472 0 0 Z " fill="#FCA947" transform="translate(133.625,37.9375)"/>
<path d="M0 0 C1 1 1 1 1.0625 4.0625 C1.041875 5.031875 1.02125 6.00125 1 7 C1.66 7 2.32 7 3 7 C3.19055047 11.76376184 3.07190488 15.64899976 1 20 C-1.125 20.875 -1.125 20.875 -3 21 C-3 21.99 -3 22.98 -3 24 C-8.67812314 26.43348135 -12.81388728 27.69843208 -19 27 C-22.5 25.125 -22.5 25.125 -25 23 C-25 22.34 -25 21.68 -25 21 C-25.99 20.67 -26.98 20.34 -28 20 C-31.04516748 15.50863258 -30.50823486 10.19785657 -30 5 C-28.6875 1.875 -28.6875 1.875 -27 0 C-26.01 -0.33 -25.02 -0.66 -24 -1 C-23.67 -1.99 -23.34 -2.98 -23 -4 C-14.48766583 -5.96438481 -7.38118111 -4.51909048 0 0 Z M-22 -2 C-22.33 -1.34 -22.66 -0.68 -23 0 C-23.99 0.33 -24.98 0.66 -26 1 C-28.5963381 5.80803352 -29.61661411 9.45047303 -29 15 C-27.84587664 17.92798943 -27.84587664 17.92798943 -26 20 C-25.01 20 -24.02 20 -23 20 C-23 20.99 -23 21.98 -23 23 C-21.68 23 -20.36 23 -19 23 C-19 23.66 -19 24.32 -19 25 C-13.40268068 25.28951652 -9.8316984 25.18452849 -5 22 C-2.29921786 19.23034546 -1.09762727 17.63496161 -0.50390625 13.7734375 C-0.53291016 12.09121094 -0.53291016 12.09121094 -0.5625 10.375 C-0.56378906 9.24835938 -0.56507813 8.12171875 -0.56640625 6.9609375 C-0.76852338 4.02430362 -0.76852338 4.02430362 -2.33984375 2.1015625 C-4.0845649 0.72355545 -4.0845649 0.72355545 -7 1 C-7 0.01 -7 -0.98 -7 -2 C-11.95 -2 -16.9 -2 -22 -2 Z " fill="#FDC2BD" transform="translate(174,167)"/>
<path d="M0 0 C2.3125 0.875 2.3125 0.875 4 2 C4.495 3.485 4.495 3.485 5 5 C4.278125 4.690625 3.55625 4.38125 2.8125 4.0625 C0.19692691 3.07439461 -2.25118982 2.4712246 -5 2 C-8.22723191 6.19540148 -9.51537765 9.53472136 -10.51171875 14.70703125 C-11.75943264 20.56629566 -14.34331552 25.82338435 -17.09375 31.10546875 C-18.15540254 33.20654354 -18.15540254 33.20654354 -19.0625 36.4375 C-19.371875 37.283125 -19.68125 38.12875 -20 39 C-21.485 39.495 -21.485 39.495 -23 40 C-25.2486345 44.12249658 -25.53237735 48.40171066 -26 53 C-27.485 53.495 -27.485 53.495 -29 54 C-29.59070014 55.94603274 -29.59070014 55.94603274 -30 58 C-32.49040942 60.49040942 -33.43154357 60.32391014 -36.875 60.375 C-40.54179392 60.32201165 -41.63110884 60.28105993 -44.625 58 C-45.07875 57.34 -45.5325 56.68 -46 56 C-40.125 56.875 -40.125 56.875 -39 58 C-36.04182893 58.25005386 -36.04182893 58.25005386 -33 58 C-29.70787449 54.70787449 -29.09549994 50.92316612 -28.625 46.375 C-27.91331236 42.53188672 -26.92194554 41.46539155 -24 39 C-23.67 38.34 -23.34 37.68 -23 37 C-22.34 37 -21.68 37 -21 37 C-21 34.69 -21 32.38 -21 30 C-20.34 29.67 -19.68 29.34 -19 29 C-18.67 27.845 -18.34 26.69 -18 25.5 C-17.67 24.345 -17.34 23.19 -17 22 C-16.34 21.67 -15.68 21.34 -15 21 C-14.29508733 18.67793475 -13.62787571 16.34406932 -13 14 C-12.67 13.67 -12.34 13.34 -12 13 C-11.89489264 11.39711274 -11.8157972 9.79248158 -11.75 8.1875 C-11.40339602 4.46550649 -11.23920468 3.29388003 -8.8125 0.3125 C-5.29904541 -1.32711214 -3.68048939 -1.09631599 0 0 Z " fill="#FDB042" transform="translate(123,77)"/>
<path d="M0 0 C1.26166992 0.00580078 1.26166992 0.00580078 2.54882812 0.01171875 C3.38607422 0.00785156 4.22332031 0.00398437 5.0859375 0 C5.88708984 0.00128906 6.68824219 0.00257813 7.51367188 0.00390625 C8.25093506 0.00503418 8.98819824 0.00616211 9.74780273 0.00732422 C11.61132812 0.13671875 11.61132812 0.13671875 13.61132812 1.13671875 C13.28139979 4.10607377 12.81226213 5.86766321 11.00976562 8.28125 C7.74893716 10.80387788 5.56573289 10.63809252 1.48632812 10.57421875 C0.24625 10.57292969 -0.99382812 10.57164062 -2.27148438 10.5703125 C-3.81449219 10.35568359 -3.81449219 10.35568359 -5.38867188 10.13671875 C-7.68272031 6.69564609 -7.65160243 5.16832066 -7.38867188 1.13671875 C-5.44916048 -0.80279265 -2.57660068 0.00415246 0 0 Z " fill="#4B254B" transform="translate(124.388671875,196.86328125)"/>
<path d="M0 0 C0.84324672 1.578076 1.67423918 3.1627042 2.5 4.75 C2.9640625 5.63171875 3.428125 6.5134375 3.90625 7.421875 C5 10 5 10 5 14 C5.66 14 6.32 14 7 14 C8.48685658 16.97371315 8.20409091 20.025668 8.23828125 23.2890625 C8.25038887 24.39318985 8.25038887 24.39318985 8.26274109 25.5196228 C8.27659817 27.08825321 8.28731304 28.65691398 8.29516602 30.22558594 C8.3065416 31.80022267 8.32675614 33.37482546 8.35668945 34.94921875 C8.56772584 46.05987196 7.78327044 56.45846055 4 67 C3.01 67.495 3.01 67.495 2 68 C2.2165625 67.04867187 2.433125 66.09734375 2.65625 65.1171875 C4.75776229 54.93744204 5.32910784 44.95069987 5.375 34.5625 C5.39530273 32.66250244 5.39530273 32.66250244 5.41601562 30.72412109 C5.37022738 21.03354862 3.66489002 12.93354228 0 4 C-1.65 4 -3.3 4 -5 4 C-5.33 4.99 -5.66 5.98 -6 7 C-7.3125 8.75 -7.3125 8.75 -9 10 C-11.1875 9.6875 -11.1875 9.6875 -13 9 C-6.90340909 -0.46022727 -6.90340909 -0.46022727 0 0 Z " fill="#FB895A" transform="translate(183,124)"/>
<path d="M0 0 C2.31 0 4.62 0 7 0 C7 0.99 7 1.98 7 3 C7.66 3 8.32 3 9 3 C9 4.32 9 5.64 9 7 C9.66 7 10.32 7 11 7 C11 8.98 11 10.96 11 13 C11.66 13 12.32 13 13 13 C14.14601494 15.29202988 14.13237239 16.5945669 14.14526367 19.14257812 C14.15483345 20.42400696 14.15483345 20.42400696 14.16459656 21.73132324 C14.16570938 22.65529907 14.1668222 23.5792749 14.16796875 24.53125 C14.17129715 25.47810669 14.17462555 26.42496338 14.17805481 27.4005127 C14.18312246 29.40453606 14.18546319 31.40856789 14.18530273 33.41259766 C14.18749106 36.48744503 14.20565354 39.56193481 14.22460938 42.63671875 C14.22754289 44.58072793 14.22952797 46.52473883 14.23046875 48.46875 C14.23765427 49.39272583 14.24483978 50.31670166 14.25224304 51.26867676 C14.24916641 52.12296265 14.24608978 52.97724854 14.24291992 53.85742188 C14.24434494 54.61083862 14.24576996 55.36425537 14.24723816 56.14050293 C14 58 14 58 12 60 C11.39397335 62.36195411 11.39397335 62.36195411 11 65 C10.22222222 69.77777778 10.22222222 69.77777778 8 72 C6.48998507 75.89887603 6.48998507 75.89887603 6 80 C6.7425 79.484375 7.485 78.96875 8.25 78.4375 C11 77 11 77 13.3125 77.3125 C13.869375 77.539375 14.42625 77.76625 15 78 C10.375 82 10.375 82 7 82 C7 82.66 7 83.32 7 84 C4.525 84.495 4.525 84.495 2 85 C2 85.66 2 86.32 2 87 C1.34 87 0.68 87 0 87 C0 85.35 0 83.7 0 82 C0.99 81.505 0.99 81.505 2 81 C3.10511341 78.29314326 3.98683351 75.53790162 4.90234375 72.76171875 C6 70 6 70 7.46386719 68.20483398 C14.06595512 58.72876022 12.357643 43.6297207 12.1875 32.625 C12.17240912 30.90626187 12.15872859 29.18751076 12.14648438 27.46875 C12.113866 23.31217149 12.06233393 19.15623469 12 15 C11.34 15 10.68 15 10 15 C9.72285156 14.22914063 9.44570312 13.45828125 9.16015625 12.6640625 C8.79792969 11.66117188 8.43570313 10.65828125 8.0625 9.625 C7.70285156 8.62726563 7.34320313 7.62953125 6.97265625 6.6015625 C6.07650708 4.06495835 6.07650708 4.06495835 5 2 C2.47266765 1.34444881 2.47266765 1.34444881 0 1 C0 0.67 0 0.34 0 0 Z " fill="#FDB241" transform="translate(178,123)"/>
<path d="M0 0 C0.33 0.99 0.66 1.98 1 3 C1.66 3 2.32 3 3 3 C3.25 9.625 3.25 9.625 1 13 C-1.3828125 13.29296875 -1.3828125 13.29296875 -4.125 13.1875 C-5.03507813 13.16042969 -5.94515625 13.13335937 -6.8828125 13.10546875 C-7.58148438 13.07066406 -8.28015625 13.03585938 -9 13 C-10.71962543 9.76628206 -11.4631871 7.70549676 -11 4 C-8.72365949 -1.26403744 -5.06303971 -0.3320026 0 0 Z " fill="#7F6580" transform="translate(164,171)"/>
<path d="M0 0 C0.33 0 0.66 0 1 0 C1 1.98 1 3.96 1 6 C0.01 6.33 -0.98 6.66 -2 7 C-2.36042882 8.32626542 -2.69007606 9.66103173 -3 11 C-4.375 12.81640625 -4.375 12.81640625 -6 14.5625 C-8.11833137 16.84887208 -8.98917686 17.96753059 -10 21 C-10.66 21 -11.32 21 -12 21 C-12 21.99 -12 22.98 -12 24 C-14.58958203 26.93952555 -16.25366514 28.75122171 -20 30 C-20 31.32 -20 32.64 -20 34 C-20.66 34 -21.32 34 -22 34 C-22.33 34.99 -22.66 35.98 -23 37 C-27.75 36.25 -27.75 36.25 -30 34 C-29.67 33.01 -29.34 32.02 -29 31 C-28.34 31.99 -27.68 32.98 -27 34 C-26.01 34.33 -25.02 34.66 -24 35 C-24 34.01 -24 33.02 -24 32 C-23.34 32 -22.68 32 -22 32 C-21.67 30.02 -21.34 28.04 -21 26 C-20.01 26 -19.02 26 -18 26 C-18 24.68 -18 23.36 -18 22 C-17.01 22 -16.02 22 -15 22 C-14.67 20.35 -14.34 18.7 -14 17 C-13.01 16.67 -12.02 16.34 -11 16 C-11 14.68 -11 13.36 -11 12 C-9.68 12 -8.36 12 -7 12 C-6.896875 11.42765625 -6.79375 10.8553125 -6.6875 10.265625 C-5.88277166 7.61367934 -4.68718808 5.94009991 -3 3.75 C-2.46375 3.04359375 -1.9275 2.3371875 -1.375 1.609375 C-0.92125 1.07828125 -0.4675 0.5471875 0 0 Z " fill="#FB8D58" transform="translate(93,70)"/>
<path d="M0 0 C3.2578125 -0.29296875 3.2578125 -0.29296875 7.125 -0.1875 C9.04699219 -0.14689453 9.04699219 -0.14689453 11.0078125 -0.10546875 C11.99523437 -0.07066406 12.98265625 -0.03585938 14 0 C14 0.33 14 0.66 14 1 C10.04 1 6.08 1 2 1 C2 1.99 2 2.98 2 4 C1.01 4 0.02 4 -1 4 C-1.33 5.32 -1.66 6.64 -2 8 C-2.66 8 -3.32 8 -4 8 C-4 12.29 -4 16.58 -4 21 C-1.525 21.99 -1.525 21.99 1 23 C1 23.66 1 24.32 1 25 C6.28 25.33 11.56 25.66 17 26 C17 25.01 17 24.02 17 23 C18.32 23.33 19.64 23.66 21 24 C20.34 24 19.68 24 19 24 C19 24.99 19 25.98 19 27 C13.71448873 29.53704541 9.71982172 31.17468054 3.84765625 29.3203125 C1.88030827 28.59422625 -0.06228156 27.80181453 -2 27 C-2 26.01 -2 25.02 -2 24 C-2.99 23.67 -3.98 23.34 -5 23 C-6.51714839 19.96570323 -6.14363916 16.82398333 -6.125 13.5 C-6.12886719 12.81035156 -6.13273437 12.12070313 -6.13671875 11.41015625 C-6.12666646 6.25333293 -6.12666646 6.25333293 -5 4 C-4.01 3.67 -3.02 3.34 -2 3 C-1.34 2.01 -0.68 1.02 0 0 Z " fill="#FDD5D2" transform="translate(85,164)"/>
<path d="M0 0 C1.60206484 3.20412967 0.73740761 6.60151277 0 10 C-0.33378662 10.53061035 -0.66757324 11.0612207 -1.01147461 11.60791016 C-2.46425715 15.1234358 -2.28515302 18.60000523 -2.265625 22.34375 C-2.26849518 23.55291077 -2.26849518 23.55291077 -2.27142334 24.78649902 C-2.27278194 26.48771477 -2.2691082 28.188941 -2.26074219 29.89013672 C-2.25003788 32.49079729 -2.26064828 35.09076711 -2.2734375 37.69140625 C-2.27211585 39.34635569 -2.26955333 41.0013047 -2.265625 42.65625 C-2.26967346 43.43238647 -2.27372192 44.20852295 -2.27789307 45.00817871 C-2.24422782 48.89334195 -1.98557646 51.64818334 0 55 C0.1953125 58.234375 0.1953125 58.234375 0.125 61.75 C0.10695313 62.92046875 0.08890625 64.0909375 0.0703125 65.296875 C0.04710937 66.18890625 0.02390625 67.0809375 0 68 C-2.31 68 -4.62 68 -7 68 C-7 67.01 -7 66.02 -7 65 C-9.475 65.495 -9.475 65.495 -12 66 C-12.33 68.97 -12.66 71.94 -13 75 C-12.34 75 -11.68 75 -11 75 C-11 75.66 -11 76.32 -11 77 C-11.99 76.67 -12.98 76.34 -14 76 C-14.2236337 74.58566794 -14.42826476 73.16832382 -14.625 71.75 C-14.74101563 70.96109375 -14.85703125 70.1721875 -14.9765625 69.359375 C-15.00319395 66.67847541 -14.36592084 65.27305911 -13 63 C-10.69 63 -8.38 63 -6 63 C-6 63.99 -6 64.98 -6 66 C-4.35 66 -2.7 66 -1 66 C-1.33 63.69 -1.66 61.38 -2 59 C-2.66 59 -3.32 59 -4 59 C-4 42.17 -4 25.34 -4 8 C-3.34 7.67 -2.68 7.34 -2 7 C-1.26924352 4.6859378 -0.59861742 2.35171131 0 0 Z " fill="#FB8E57" transform="translate(49,93)"/>
<path d="M0 0 C0.66 0.33 1.32 0.66 2 1 C1.95875 1.886875 1.9175 2.77375 1.875 3.6875 C1.82866033 7.38392777 1.82866033 7.38392777 4 12 C9.445 11.505 9.445 11.505 15 11 C15.33 10.01 15.66 9.02 16 8 C16.99 8 17.98 8 19 8 C19.33 7.34 19.66 6.68 20 6 C20 8.31 20 10.62 20 13 C19.01 13.495 19.01 13.495 18 14 C17.67 14.99 17.34 15.98 17 17 C14.70839681 17.02692484 12.41670454 17.04636124 10.125 17.0625 C8.84882812 17.07410156 7.57265625 17.08570313 6.2578125 17.09765625 C3 17 3 17 1 16 C1 15.34 1 14.68 1 14 C-1.475 13.01 -1.475 13.01 -4 12 C-4 11.34 -4 10.68 -4 10 C-3.01 10.33 -2.02 10.66 -1 11 C-0.67 7.37 -0.34 3.74 0 0 Z " fill="#F7F3F4" transform="translate(85,173)"/>
<path d="M0 0 C1.98 0 3.96 0 6 0 C6.33 0.99 6.66 1.98 7 3 C7.66 3 8.32 3 9 3 C9.33 4.32 9.66 5.64 10 7 C9.34 6.67 8.68 6.34 8 6 C8 5.34 8 4.68 8 4 C7.01 4 6.02 4 5 4 C5 3.01 5 2.02 5 1 C2.37659443 2.60703546 1.17224627 3.46883663 0.20703125 6.4453125 C0.07683594 7.32960938 -0.05335937 8.21390625 -0.1875 9.125 C-0.93310463 13.93310463 -0.93310463 13.93310463 -2 15 C-2.08858646 17.73894085 -2.11523479 20.4525327 -2.09765625 23.19140625 C-2.09553383 24.42116432 -2.09553383 24.42116432 -2.09336853 25.67576599 C-2.08775289 28.30471382 -2.07519779 30.93357773 -2.0625 33.5625 C-2.05748701 35.34049357 -2.05292376 37.11848846 -2.04882812 38.89648438 C-2.03777839 43.26435545 -2.02050331 47.63216348 -2 52 C-1.34 52 -0.68 52 0 52 C0 58.27 0 64.54 0 71 C-4.29 70.34 -8.58 69.68 -13 69 C-13 68.34 -13 67.68 -13 67 C-9.04 67.33 -5.08 67.66 -1 68 C-1.11443603 65.9160597 -1.24195547 63.83283507 -1.375 61.75 C-1.44460937 60.58984375 -1.51421875 59.4296875 -1.5859375 58.234375 C-1.76170218 55.1418144 -1.76170218 55.1418144 -3.00927734 53.31933594 C-4.49327071 49.84522627 -4.2850042 46.37146383 -4.265625 42.65625 C-4.26753845 41.85014282 -4.2694519 41.04403564 -4.27142334 40.21350098 C-4.27278194 38.51228523 -4.2691082 36.811059 -4.26074219 35.10986328 C-4.25003788 32.50920271 -4.26064828 29.90923289 -4.2734375 27.30859375 C-4.27211585 25.65364431 -4.26955333 23.9986953 -4.265625 22.34375 C-4.26967346 21.56761353 -4.27372192 20.79147705 -4.27789307 19.99182129 C-4.24447742 16.13546369 -4.05842509 13.29937539 -2 10 C-1.57336714 8.26186612 -1.19923141 6.51011335 -0.875 4.75 C-0.70742188 3.85796875 -0.53984375 2.9659375 -0.3671875 2.046875 C-0.24601562 1.37140625 -0.12484375 0.6959375 0 0 Z " fill="#FCAC44" transform="translate(50,93)"/>
<path d="M0 0 C1.54204102 0.00966797 1.54204102 0.00966797 3.11523438 0.01953125 C4.18708984 0.03628906 5.25894531 0.05304688 6.36328125 0.0703125 C7.44673828 0.07933594 8.53019531 0.08835938 9.64648438 0.09765625 C12.32313835 0.1212391 14.99934922 0.15415124 17.67578125 0.1953125 C18.00578125 2.5053125 18.33578125 4.8153125 18.67578125 7.1953125 C18.01578125 7.1953125 17.35578125 7.1953125 16.67578125 7.1953125 C16.67578125 8.1853125 16.67578125 9.1753125 16.67578125 10.1953125 C14.30208338 12.71589761 12.91431493 13.17370619 9.44140625 13.48828125 C8.28125 13.45347656 7.12109375 13.41867188 5.92578125 13.3828125 C4.17007813 13.34220703 4.17007813 13.34220703 2.37890625 13.30078125 C1.486875 13.26597656 0.59484375 13.23117188 -0.32421875 13.1953125 C-0.32421875 12.8653125 -0.32421875 12.5353125 -0.32421875 12.1953125 C0.90554687 12.17404297 0.90554687 12.17404297 2.16015625 12.15234375 C8.83403845 12.06081095 8.83403845 12.06081095 14.36328125 8.8203125 C15.7568039 6.1879468 15.7568039 6.1879468 16.67578125 3.1953125 C10.07578125 3.1953125 3.47578125 3.1953125 -3.32421875 3.1953125 C-3.65421875 4.8453125 -3.98421875 6.4953125 -4.32421875 8.1953125 C-5.64421875 7.5353125 -6.96421875 6.8753125 -8.32421875 6.1953125 C-8.32421875 4.8753125 -8.32421875 3.5553125 -8.32421875 2.1953125 C-4.97302356 -0.03881763 -3.90644325 -0.04316512 0 0 Z " fill="#A54C5A" transform="translate(121.32421875,194.8046875)"/>
<path d="M0 0 C0 0.66 0 1.32 0 2 C1.1446875 2.1546875 1.1446875 2.1546875 2.3125 2.3125 C5.21655911 3.05539884 6.28995766 3.56993983 8 6 C8 7.32 8 8.64 8 10 C8.99 10 9.98 10 11 10 C11 14.29 11 18.58 11 23 C10.67 23 10.34 23 10 23 C9.67 19.04 9.34 15.08 9 11 C8.34 11 7.68 11 7 11 C7 9.68 7 8.36 7 7 C6.4225 6.855625 5.845 6.71125 5.25 6.5625 C3.92583069 6.23145767 2.60605711 5.87955309 1.30078125 5.48046875 C-1.83799092 4.82500359 -4.85817221 4.79043316 -8.0625 4.75 C-9.29097656 4.72421875 -10.51945312 4.6984375 -11.78515625 4.671875 C-14.98346174 4.7093154 -14.98346174 4.7093154 -16.93359375 6.515625 C-17.28550781 7.00546875 -17.63742188 7.4953125 -18 8 C-17.0967987 4.6581552 -16.33647374 3.24394346 -13.5 1.1875 C-8.91200265 -0.36914196 -4.7966471 -0.25594757 0 0 Z " fill="#FB8C83" transform="translate(100,160)"/>
<path d="M0 0 C2.875 -0.125 2.875 -0.125 6 0 C8 2 8 2 8.25 4.9375 C8 8 8 8 6 11 C2.375 11.1875 2.375 11.1875 -1 11 C-1 10.01 -1 9.02 -1 8 C-1.66 8 -2.32 8 -3 8 C-3 6.35 -3 4.7 -3 3 C-2.34 3 -1.68 3 -1 3 C-0.67 2.01 -0.34 1.02 0 0 Z " fill="#533154" transform="translate(91,172)"/>
<path d="M0 0 C1.32 0 2.64 0 4 0 C6.7039577 7.25152293 7.99322726 14.33668281 9 22 C9.33 22 9.66 22 10 22 C10.07402368 27.65996416 10.12854173 33.31964811 10.16479492 38.97998047 C10.17990395 40.90646267 10.20039214 42.83291035 10.22631836 44.75927734 C10.26260925 47.52450057 10.27970479 50.28927004 10.29296875 53.0546875 C10.30845261 53.9193161 10.32393646 54.7839447 10.33988953 55.67477417 C10.34057617 58.10107422 10.34057617 58.10107422 10 62 C9.01 62.66 8.02 63.32 7 64 C7 63.01 7 62.02 7 61 C7.66 61 8.32 61 9 61 C8.90604205 56.40981063 8.79985709 51.82012259 8.68261719 47.23046875 C8.64447039 45.67097602 8.60959318 44.1113996 8.578125 42.55175781 C8.53216175 40.30243126 8.47422192 38.05367385 8.4140625 35.8046875 C8.40251129 35.1138205 8.39096008 34.42295349 8.37905884 33.71115112 C8.25096285 29.45476739 7.49345979 25.97566543 6 22 C5.67449363 20.27688294 5.38217685 18.54713162 5.125 16.8125 C4.12116739 10.91903115 2.20748601 5.54014692 0 0 Z " fill="#FB8D58" transform="translate(195,89)"/>
<path d="M0 0 C0.87527344 0.01933594 1.75054687 0.03867188 2.65234375 0.05859375 C3.53019531 0.05988281 4.40804687 0.06117188 5.3125 0.0625 C6.43978516 0.27712891 6.43978516 0.27712891 7.58984375 0.49609375 C10.07370434 4.22188464 9.97026495 6.08320777 9.58984375 10.49609375 C8.65234375 13.43359375 8.65234375 13.43359375 6.58984375 15.49609375 C3.45392346 16.21437717 0.72503989 16.22004966 -2.41015625 15.49609375 C-4.99405501 12.83389503 -5.33825771 11.08326515 -5.78515625 7.43359375 C-5.27139096 3.40909901 -4.18390347 0.86119245 0 0 Z M-0.41015625 2.49609375 C-0.74015625 3.48609375 -1.07015625 4.47609375 -1.41015625 5.49609375 C-2.07015625 5.49609375 -2.73015625 5.49609375 -3.41015625 5.49609375 C-3.41015625 7.14609375 -3.41015625 8.79609375 -3.41015625 10.49609375 C-2.75015625 10.49609375 -2.09015625 10.49609375 -1.41015625 10.49609375 C-1.41015625 11.48609375 -1.41015625 12.47609375 -1.41015625 13.49609375 C2.00627134 13.74625248 2.00627134 13.74625248 5.58984375 13.49609375 C7.89148257 10.04363551 7.93474697 8.54870662 7.58984375 4.49609375 C5.69229231 2.14635557 5.69229231 2.14635557 2.46484375 2.37109375 C1.51609375 2.41234375 0.56734375 2.45359375 -0.41015625 2.49609375 Z " fill="#A694A7" transform="translate(91.41015625,169.50390625)"/>
<path d="M0 0 C0.66 0 1.32 0 2 0 C1.6875 1.9375 1.6875 1.9375 1 4 C0.01 4.33 -0.98 4.66 -2 5 C-4.12050462 8.11007345 -4.27034962 10.79636904 -4.25 14.5 C-4.25773438 15.90765625 -4.25773438 15.90765625 -4.265625 17.34375 C-3.84227902 21.57720976 -2.20610376 24.26887457 1 27 C5.43964159 30.42486637 8.58371942 30.34389083 14 30 C16.35529281 29.58268982 16.35529281 29.58268982 18 29 C17.34 29.99 16.68 30.98 16 32 C13.1796875 32.29296875 13.1796875 32.29296875 9.875 32.1875 C8.23144531 32.14689453 8.23144531 32.14689453 6.5546875 32.10546875 C5.71164063 32.07066406 4.86859375 32.03585938 4 32 C3.67 31.01 3.34 30.02 3 29 C1.35 28.67 -0.3 28.34 -2 28 C-2.33 27.01 -2.66 26.02 -3 25 C-3.66 25 -4.32 25 -5 25 C-7.37590142 21.29583874 -7.20500286 18.07015427 -7.125 13.75 C-7.10695312 12.48671875 -7.08890625 11.2234375 -7.0703125 9.921875 C-7.04710937 8.95765625 -7.02390625 7.9934375 -7 7 C-6.01 6.67 -5.02 6.34 -4 6 C-2.90833725 4.06669397 -2.90833725 4.06669397 -2 2 C-1.34 1.34 -0.68 0.68 0 0 Z " fill="#FB8E86" transform="translate(149,163)"/>
<path d="M0 0 C0.8971875 0.309375 0.8971875 0.309375 1.8125 0.625 C1.1525 0.625 0.4925 0.625 -0.1875 0.625 C-0.5175 1.615 -0.8475 2.605 -1.1875 3.625 C-6.44464286 7.625 -6.44464286 7.625 -10.1875 7.625 C-10.5175 8.615 -10.8475 9.605 -11.1875 10.625 C-11.8475 10.625 -12.5075 10.625 -13.1875 10.625 C-13.5175 11.615 -13.8475 12.605 -14.1875 13.625 C-15.1775 13.625 -16.1675 13.625 -17.1875 13.625 C-17.27128906 14.21152344 -17.35507813 14.79804687 -17.44140625 15.40234375 C-18.40375138 18.2692253 -19.78905661 19.29931429 -22.125 21.1875 C-24.71778657 23.30031519 -26.30447524 24.80046286 -28.1875 27.625 C-28.8475 27.295 -29.5075 26.965 -30.1875 26.625 C-29.23706626 25.28602417 -28.27690853 23.95394573 -27.3125 22.625 C-26.51199219 21.51125 -26.51199219 21.51125 -25.6953125 20.375 C-24.94894531 19.50875 -24.94894531 19.50875 -24.1875 18.625 C-23.5275 18.625 -22.8675 18.625 -22.1875 18.625 C-22.1875 17.635 -22.1875 16.645 -22.1875 15.625 C-18.85416667 12.625 -18.85416667 12.625 -16.1875 12.625 C-15.8575 11.635 -15.5275 10.645 -15.1875 9.625 C-14.1975 9.625 -13.2075 9.625 -12.1875 9.625 C-11.8575 8.305 -11.5275 6.985 -11.1875 5.625 C-9.8675 5.625 -8.5475 5.625 -7.1875 5.625 C-7.1875 4.965 -7.1875 4.305 -7.1875 3.625 C-6.5275 3.625 -5.8675 3.625 -5.1875 3.625 C-5.1875 2.965 -5.1875 2.305 -5.1875 1.625 C-2.1875 -0.375 -2.1875 -0.375 0 0 Z " fill="#FB8E57" transform="translate(124.1875,42.375)"/>
<path d="M0 0 C1.2065625 0.0309375 1.2065625 0.0309375 2.4375 0.0625 C2.4375 0.7225 2.4375 1.3825 2.4375 2.0625 C0.7875 2.0625 -0.8625 2.0625 -2.5625 2.0625 C-2.5625 4.0425 -2.5625 6.0225 -2.5625 8.0625 C-1.5725 8.0625 -0.5825 8.0625 0.4375 8.0625 C0.66536458 10.04817708 0.89322917 12.03385417 1.12109375 14.01953125 C1.40920735 16.25646393 1.40920735 16.25646393 2.4375 19.0625 C4.94197516 20.28119929 4.94197516 20.28119929 7.4375 21.0625 C7.4375 22.3825 7.4375 23.7025 7.4375 25.0625 C8.4275 25.0625 9.4175 25.0625 10.4375 25.0625 C10.4375 26.0525 10.4375 27.0425 10.4375 28.0625 C11.05625 28.10375 11.675 28.145 12.3125 28.1875 C13.01375 28.47625 13.715 28.765 14.4375 29.0625 C15.6875 32.125 15.6875 32.125 16.4375 35.0625 C14.4375 33.6875 14.4375 33.6875 12.4375 32.0625 C12.4375 31.4025 12.4375 30.7425 12.4375 30.0625 C11.4475 29.7325 10.4575 29.4025 9.4375 29.0625 C9.4375 28.4025 9.4375 27.7425 9.4375 27.0625 C8.1175 27.0625 6.7975 27.0625 5.4375 27.0625 C5.1075 26.0725 4.7775 25.0825 4.4375 24.0625 C3.7775 23.7325 3.1175 23.4025 2.4375 23.0625 C1.3671875 21.13671875 1.3671875 21.13671875 0.3125 18.75 C-0.04070313 17.97011719 -0.39390625 17.19023437 -0.7578125 16.38671875 C-1.5625 14.0625 -1.5625 14.0625 -1.5625 10.0625 C-2.2225 10.0625 -2.8825 10.0625 -3.5625 10.0625 C-3.58939216 8.58343108 -3.60884621 7.10422517 -3.625 5.625 C-3.63660156 4.80128906 -3.64820313 3.97757813 -3.66015625 3.12890625 C-3.51340586 0.02366796 -3.12550237 0.07623177 0 0 Z " fill="#FC9A4F" transform="translate(39.5625,157.9375)"/>
<path d="M0 0 C0.33 1.32 0.66 2.64 1 4 C-0.093125 4.020625 -1.18625 4.04125 -2.3125 4.0625 C-3.529375 4.371875 -4.74625 4.68125 -6 5 C-8.69539108 9.76185757 -10.13123997 14.57808863 -10.11352539 20.03417969 C-10.11344986 20.81468689 -10.11337433 21.59519409 -10.11329651 22.39935303 C-10.10813522 23.23178528 -10.10297394 24.06421753 -10.09765625 24.921875 C-10.0962413 25.78186096 -10.09482635 26.64184692 -10.09336853 27.52789307 C-10.08778097 30.26863109 -10.07523075 33.00928676 -10.0625 35.75 C-10.05748339 37.6106759 -10.05292077 39.47135309 -10.04882812 41.33203125 C-10.03781561 45.88805246 -10.02055951 50.44401228 -10 55 C-10.66 55 -11.32 55 -12 55 C-12.04934154 48.91277254 -12.08569167 42.8256608 -12.10986328 36.73828125 C-12.11993712 34.66632053 -12.13359666 32.59437407 -12.15087891 30.52246094 C-12.17506664 27.54879236 -12.18646908 24.5753113 -12.1953125 21.6015625 C-12.21079636 20.20618759 -12.21079636 20.20618759 -12.22659302 18.78262329 C-12.22674408 17.92188202 -12.22689514 17.06114075 -12.22705078 16.17431641 C-12.231492 15.41486725 -12.23593323 14.65541809 -12.24050903 13.87295532 C-12 12 -12 12 -10 10 C-9.42979389 7.97260048 -9.05183592 5.94367711 -8.66015625 3.875 C-7.16810636 -0.36277483 -3.85622309 -0.20844449 0 0 Z " fill="#FDB83D" transform="translate(70,122)"/>
<path d="M0 0 C0.66 0 1.32 0 2 0 C2.4125 1.11375 2.825 2.2275 3.25 3.375 C4.51420444 6.74019183 5.8065216 10.09318436 7.125 13.4375 C7.45757812 14.28183594 7.79015625 15.12617187 8.1328125 15.99609375 C8.836283 17.9589886 8.836283 17.9589886 10 19 C10.27953219 21.0587768 10.44734351 23.11728432 10.62109375 25.1875 C10.74613281 25.785625 10.87117187 26.38375 11 27 C11.66 27.33 12.32 27.66 13 28 C13 28.66 13 29.32 13 30 C14.98 30 16.96 30 19 30 C19 29.34 19 28.68 19 28 C19.99 27.67 20.98 27.34 22 27 C22.33 26.34 22.66 25.68 23 25 C23.66 25.33 24.32 25.66 25 26 C24.34 26.99 23.68 27.98 23 29 C22.01 29 21.02 29 20 29 C20 29.66 20 30.32 20 31 C17.01405576 32.49297212 14.29146376 32.11755228 11 32 C10.34 31.67 9.68 31.34 9 31 C8.69140625 29.1796875 8.69140625 29.1796875 8.5625 26.875 C8.06063439 21.31925963 6.09100183 17.00744337 3.4375 12.125 C1.62334575 8.18118641 0.80251109 4.24858812 0 0 Z " fill="#FCA04C" transform="translate(145,109)"/>
<path d="M0 0 C1.26166992 0.00580078 1.26166992 0.00580078 2.54882812 0.01171875 C3.38607422 0.00785156 4.22332031 0.00398437 5.0859375 0 C5.88708984 0.00128906 6.68824219 0.00257813 7.51367188 0.00390625 C8.25093506 0.00503418 8.98819824 0.00616211 9.74780273 0.00732422 C11.61132812 0.13671875 11.61132812 0.13671875 13.61132812 1.13671875 C13.28139979 4.10607377 12.81226213 5.86766321 11.00976562 8.28125 C7.74893716 10.80387788 5.56573289 10.63809252 1.48632812 10.57421875 C0.24625 10.57292969 -0.99382812 10.57164062 -2.27148438 10.5703125 C-3.81449219 10.35568359 -3.81449219 10.35568359 -5.38867188 10.13671875 C-7.68272031 6.69564609 -7.65160243 5.16832066 -7.38867188 1.13671875 C-5.44916048 -0.80279265 -2.57660068 0.00415246 0 0 Z M-6.38867188 2.13671875 C-6.38867188 3.45671875 -6.38867188 4.77671875 -6.38867188 6.13671875 C-5.39867188 6.46671875 -4.40867187 6.79671875 -3.38867188 7.13671875 C-3.05867188 7.79671875 -2.72867188 8.45671875 -2.38867188 9.13671875 C0.91132812 9.13671875 4.21132812 9.13671875 7.61132812 9.13671875 C7.61132812 8.14671875 7.61132812 7.15671875 7.61132812 6.13671875 C8.93132812 6.13671875 10.25132812 6.13671875 11.61132812 6.13671875 C11.61132812 4.81671875 11.61132812 3.49671875 11.61132812 2.13671875 C5.67132813 2.13671875 -0.26867187 2.13671875 -6.38867188 2.13671875 Z " fill="#6E3451" transform="translate(124.388671875,196.86328125)"/>
<path d="M0 0 C1.60332791 -0.08121924 3.20784026 -0.13929134 4.8125 -0.1875 C6.15248047 -0.23970703 6.15248047 -0.23970703 7.51953125 -0.29296875 C10 0 10 0 11.80859375 1.16015625 C13.46712908 3.72136983 13.32982374 5.59968008 13.25 8.625 C13.23453125 9.60726562 13.2190625 10.58953125 13.203125 11.6015625 C13 14 13 14 12 15 C10.0437407 15.09927286 8.08377091 15.12969729 6.125 15.125 C5.05507812 15.12757813 3.98515625 15.13015625 2.8828125 15.1328125 C0 15 0 15 -3 14 C-3 13.01 -3 12.02 -3 11 C-3.66 11 -4.32 11 -5 11 C-5 8.69 -5 6.38 -5 4 C-4.0409375 3.8453125 -4.0409375 3.8453125 -3.0625 3.6875 C-2.381875 3.460625 -1.70125 3.23375 -1 3 C-0.67 2.01 -0.34 1.02 0 0 Z M-1.0625 2.5 C-2.48632408 6.29686421 -1.77987296 9.03564577 -1 13 C0.66684015 14.66684015 2.65643069 14.21072764 4.9375 14.25 C5.83339844 14.27578125 6.72929687 14.3015625 7.65234375 14.328125 C8.42707031 14.21984375 9.20179688 14.1115625 10 14 C12.4294516 10.3558226 12.16179575 8.28758728 12 4 C11.34 4 10.68 4 10 4 C9.67 3.01 9.34 2.02 9 1 C3.61757372 0.43271815 3.61757372 0.43271815 -1.0625 2.5 Z " fill="#CCC2CC" transform="translate(155,170)"/>
<path d="M0 0 C2 1.8125 2 1.8125 4 4 C4 4.99 4 5.98 4 7 C4.99 7.33 5.98 7.66 7 8 C7 9.65 7 11.3 7 13 C7.99 13.33 8.98 13.66 10 14 C11.05464649 15.9717304 12.04605164 17.97762948 13 20 C15.41034004 24.57619855 15.41034004 24.57619855 19.75 26.875 C20.4925 26.91625 21.235 26.9575 22 27 C21.01 28.32 20.02 29.64 19 31 C15.07376045 29.51073672 14.03542686 27.58529407 12 24 C11.33742187 22.88625 10.67484375 21.7725 9.9921875 20.625 C9.28580013 19.41705133 8.5800816 18.20871131 7.875 17 C7.51535156 16.39671875 7.15570313 15.7934375 6.78515625 15.171875 C4.82848875 11.80083736 3.48526617 8.88212935 3 5 C2.01 4.67 1.02 4.34 0 4 C0 2.68 0 1.36 0 0 Z " fill="#FC9255" transform="translate(151,82)"/>
<path d="M0 0 C0.33 0.33 0.66 0.66 1 1 C0.82364548 3.69082872 0.38164079 6.32851446 0 9 C-1.98 9 -3.96 9 -6 9 C-6 8.34 -6 7.68 -6 7 C-6.66 7 -7.32 7 -8 7 C-8 4.69 -8 2.38 -8 0 C-4.69676014 -1.10107995 -3.29495231 -0.86709271 0 0 Z " fill="#502D51" transform="translate(163,174)"/>
<path d="M0 0 C1.32 0 2.64 0 4 0 C3.67 1.32 3.34 2.64 3 4 C2.34 4 1.68 4 1 4 C0.9175 4.7425 0.835 5.485 0.75 6.25 C-0.16752658 9.61426412 -1.26219512 10.87059621 -4 13 C-4.86625 13.165 -5.7325 13.33 -6.625 13.5 C-7.40875 13.665 -8.1925 13.83 -9 14 C-10.3169667 15.88370471 -10.3169667 15.88370471 -11 18 C-12 20 -12 20 -15.0625 21.125 C-16.031875 21.41375 -17.00125 21.7025 -18 22 C-17 19 -17 19 -14.25 17.1875 C-10.61120093 14.73830832 -8.69672427 12.42556866 -6 9 C-4.3125 7.125 -4.3125 7.125 -3 6 C-2.34 6 -1.68 6 -1 6 C-0.67 4.02 -0.34 2.04 0 0 Z " fill="#FB8F56" transform="translate(211,178)"/>
<path d="M0 0 C0.66 0 1.32 0 2 0 C3.48685658 2.97371315 3.20409091 6.025668 3.23828125 9.2890625 C3.25038887 10.39318985 3.25038887 10.39318985 3.26274109 11.5196228 C3.27659817 13.08825321 3.28731304 14.65691398 3.29516602 16.22558594 C3.3065416 17.80022267 3.32675614 19.37482546 3.35668945 20.94921875 C3.56772584 32.05987196 2.78327044 42.45846055 -1 53 C-1.99 53.495 -1.99 53.495 -3 54 C-2.71125 52.74832031 -2.4225 51.49664062 -2.125 50.20703125 C1.08681054 35.20952128 4.95519979 14.86559937 0 0 Z " fill="#FC9E4D" transform="translate(188,138)"/>
<path d="M0 0 C3.30753639 9.68465691 -1.86100076 22.17896789 -5.92578125 31.01171875 C-6.58712787 32.35635239 -7.28745094 33.68178423 -8 35 C-8.66 34.67 -9.32 34.34 -10 34 C-9.52449439 32.51965236 -9.04448784 31.04074979 -8.5625 29.5625 C-8.29566406 28.73878906 -8.02882812 27.91507813 -7.75390625 27.06640625 C-7 25 -7 25 -6 24 C-5.855625 22.845 -5.71125 21.69 -5.5625 20.5 C-5.376875 19.345 -5.19125 18.19 -5 17 C-4.34 16.67 -3.68 16.34 -3 16 C-2.74364497 13.69571787 -2.59407467 11.37908887 -2.5 9.0625 C-2.22163309 2.22163309 -2.22163309 2.22163309 0 0 Z " fill="#FC8C59" transform="translate(188,170)"/>
<path d="M0 0 C0.33 0 0.66 0 1 0 C1 1.98 1 3.96 1 6 C0.01 6.33 -0.98 6.66 -2 7 C-2.36042882 8.32626542 -2.69007606 9.66103173 -3 11 C-4.375 12.81640625 -4.375 12.81640625 -6 14.5625 C-8.11833137 16.84887208 -8.98917686 17.96753059 -10 21 C-10.66 21 -11.32 21 -12 21 C-12 21.99 -12 22.98 -12 24 C-13.98 24.99 -13.98 24.99 -16 26 C-15.01874953 23.13801945 -14.0414315 21.05109885 -12.125 18.6875 C-10.35738174 16.45198279 -9.31147688 14.71865068 -8.125 12.1875 C-5.98676805 7.71510249 -3.24176274 3.75047012 0 0 Z " fill="#FDA847" transform="translate(93,70)"/>
<path d="M0 0 C1.32 0 2.64 0 4 0 C7.93163465 8.85235977 10.54736905 17.19430467 11.5 26.875 C11.58878418 27.74866211 11.67756836 28.62232422 11.76904297 29.52246094 C12.14250264 34.14094266 12.14250264 34.14094266 12 36 C11.34 36.66 10.68 37.32 10 38 C9.00345515 33.79506683 8.83502157 29.7493448 8.6875 25.4375 C8.3360528 18.27490711 7.25702808 11.4915939 4 5 C3.01 4.34 2.02 3.68 1 3 C-2.11785113 3.64644661 -2.11785113 3.64644661 -3 6 C-2.42655063 3.13275314 -2.1385485 2.1385485 0 0 Z " fill="#FDB141" transform="translate(191,87)"/>
<path d="M0 0 C14.7 1.56666667 14.7 1.56666667 19 3 C19.33 5.31 19.66 7.62 20 10 C19.01 10.33 18.02 10.66 17 11 C16.65657551 12.33076989 16.32380126 13.66431979 16 15 C15.01 15.66 14.02 16.32 13 17 C13.28875 16.34 13.5775 15.68 13.875 15 C15.23437299 11.37500535 16.10624639 7.76653307 17 4 C16.10796875 3.93941406 15.2159375 3.87882813 14.296875 3.81640625 C13.12640625 3.73261719 11.9559375 3.64882812 10.75 3.5625 C9.58984375 3.48128906 8.4296875 3.40007812 7.234375 3.31640625 C4.69022624 3.06752213 2.44046752 2.71885058 0 2 C0 1.34 0 0.68 0 0 Z " fill="#FB875B" transform="translate(202,160)"/>
<path d="M0 0 C0.33 0.99 0.66 1.98 1 3 C0.01 3.33 -0.98 3.66 -2 4 C-2.73323796 6.01508358 -2.73323796 6.01508358 -3 8 C-3.66 8 -4.32 8 -5 8 C-5.06703125 8.56074219 -5.1340625 9.12148437 -5.203125 9.69921875 C-6.32451786 12.93696579 -8.23719008 14.51156902 -10.75 16.8125 C-11.61109375 17.62332031 -12.4721875 18.43414062 -13.359375 19.26953125 C-16 21 -16 21 -18.828125 20.76171875 C-19.54484375 20.51035156 -20.2615625 20.25898437 -21 20 C-20.67 19.34 -20.34 18.68 -20 18 C-18.515 18.99 -18.515 18.99 -17 20 C-16.67 19.01 -16.34 18.02 -16 17 C-15.071875 16.4225 -14.14375 15.845 -13.1875 15.25 C-9.28877459 12.49795854 -8.10763299 10.21526597 -6 6 C-5.34 6 -4.68 6 -4 6 C-3.67 5.01 -3.34 4.02 -3 3 C-1.4375 1.3125 -1.4375 1.3125 0 0 Z " fill="#FDB141" transform="translate(187,93)"/>
<path d="M0 0 C0.03738281 0.90363281 0.07476562 1.80726563 0.11328125 2.73828125 C0.17902344 3.91777344 0.24476562 5.09726563 0.3125 6.3125 C0.39951172 8.07013672 0.39951172 8.07013672 0.48828125 9.86328125 C1.03750493 13.22989666 1.54176504 13.85810627 4 16 C4 16.99 4 17.98 4 19 C4.99 19.33 5.98 19.66 7 20 C5.68 20 4.36 20 3 20 C3 19.01 3 18.02 3 17 C2.0409375 16.690625 2.0409375 16.690625 1.0625 16.375 C-1 15 -1 15 -1.75 11.875 C-1.8325 10.92625 -1.915 9.9775 -2 9 C-2.66 9 -3.32 9 -4 9 C-4 6.36 -4 3.72 -4 1 C-2 0 -2 0 0 0 Z " fill="#FB8E86" transform="translate(79,172)"/>
<path d="M0 0 C0.99 0 1.98 0 3 0 C3 1.32 3 2.64 3 4 C3.66 4 4.32 4 5 4 C5.90630855 6.71892564 6.22201578 8.61343987 6.3125 11.4375 C6.34988281 12.19933594 6.38726562 12.96117187 6.42578125 13.74609375 C6 16 6 16 2 20 C2 13.73 2 7.46 2 1 C1.34 0.67 0.68 0.34 0 0 Z " fill="#FDD0CC" transform="translate(104,167)"/>
<path d="M0 0 C2.125 0.375 2.125 0.375 4 1 C3.236875 1.37125 2.47375 1.7425 1.6875 2.125 C-1.5510346 4.38444274 -2.37498922 6.45452193 -4 10 C-5.5625 11.875 -5.5625 11.875 -7 13 C-7.66 13 -8.32 13 -9 13 C-9.226875 13.721875 -9.45375 14.44375 -9.6875 15.1875 C-11.24831013 18.53209313 -13.3031287 20.51603959 -16 23 C-16 20 -16 20 -14.1875 18.125 C-13.465625 17.42375 -12.74375 16.7225 -12 16 C-9.86681697 12.80022545 -8.33763339 9.60132067 -7 6 C-5.68 6 -4.36 6 -3 6 C-2.87625 5.38125 -2.7525 4.7625 -2.625 4.125 C-2 2 -2 2 0 0 Z " fill="#FB9056" transform="translate(190,86)"/>
<path d="M0 0 C0.99 0.33 1.98 0.66 3 1 C3.33 2.98 3.66 4.96 4 7 C4.66 7 5.32 7 6 7 C8.1875 8.75 8.1875 8.75 10 11 C9.75 13.25 9.75 13.25 9 15 C4.25 16.125 4.25 16.125 2 15 C2.33 14.01 2.66 13.02 3 12 C3.66 12.33 4.32 12.66 5 13 C4.7834375 12.45730469 4.566875 11.91460937 4.34375 11.35546875 C4.0653125 10.64003906 3.786875 9.92460937 3.5 9.1875 C3.2215625 8.47980469 2.943125 7.77210938 2.65625 7.04296875 C2 5 2 5 2 2 C1.34 2 0.68 2 0 2 C0 1.34 0 0.68 0 0 Z " fill="#FC9155" transform="translate(67,193)"/>
<path d="M0 0 C9.24 0 18.48 0 28 0 C28 3.63 28 7.26 28 11 C27.01 11.33 26.02 11.66 25 12 C25 11.01 25 10.02 25 9 C25.66 9 26.32 9 27 9 C26.67 6.36 26.34 3.72 26 1 C21.87471501 1.13839953 17.74985892 1.2869741 13.625 1.4375 C12.449375 1.47681641 11.27375 1.51613281 10.0625 1.55664062 C8.94101563 1.59853516 7.81953125 1.64042969 6.6640625 1.68359375 C5.10872803 1.73858032 5.10872803 1.73858032 3.52197266 1.79467773 C1.00574834 1.84164223 1.00574834 1.84164223 -1 3 C-0.67 2.01 -0.34 1.02 0 0 Z " fill="#E36865" transform="translate(113,193)"/>
<path d="M0 0 C0.33 0 0.66 0 1 0 C1 1.98 1 3.96 1 6 C0.01 6.33 -0.98 6.66 -2 7 C-2.59070014 8.94603274 -2.59070014 8.94603274 -3 11 C-5.49040942 13.49040942 -6.43154357 13.32391014 -9.875 13.375 C-13.54179392 13.32201165 -14.63110884 13.28105993 -17.625 11 C-18.07875 10.34 -18.5325 9.68 -19 9 C-13.125 9.875 -13.125 9.875 -12 11 C-9.04182893 11.25005386 -9.04182893 11.25005386 -6 11 C-3.5244152 8.5244152 -3.07771836 6.30051247 -2 3 C-1.34 2.01 -0.68 1.02 0 0 Z " fill="#FC9454" transform="translate(96,124)"/>
<path d="M0 0 C0.99 0.33 1.98 0.66 3 1 C0.25 7.75 0.25 7.75 -2 10 C-7.14912794 10.59873581 -10.45967044 9.17935819 -15 7 C-14.67 6.34 -14.34 5.68 -14 5 C-13.22914062 5.08378906 -12.45828125 5.16757813 -11.6640625 5.25390625 C-10.66117187 5.35574219 -9.65828125 5.45757812 -8.625 5.5625 C-7.62726563 5.66691406 -6.62953125 5.77132812 -5.6015625 5.87890625 C-3.015963 6.21144708 -3.015963 6.21144708 -1 5 C-0.34444881 2.47266765 -0.34444881 2.47266765 0 0 Z " fill="#FDB340" transform="translate(92,126)"/>
<path d="M0 0 C-0.33 0.66 -0.66 1.32 -1 2 C-1.77150391 1.76023438 -1.77150391 1.76023438 -2.55859375 1.515625 C-5.75237003 0.84109945 -8.7996285 0.79117188 -12.0625 0.75 C-13.29097656 0.72421875 -14.51945312 0.6984375 -15.78515625 0.671875 C-18.98346174 0.7093154 -18.98346174 0.7093154 -20.93359375 2.515625 C-21.28550781 3.00546875 -21.63742188 3.4953125 -22 4 C-21.4375 1.625 -21.4375 1.625 -20 -1 C-12.41707798 -4.06233389 -7.11199128 -3.41375581 0 0 Z " fill="#FCACA6" transform="translate(104,164)"/>
<path d="M0 0 C2 1.8125 2 1.8125 4 4 C4 4.99 4 5.98 4 7 C4.66 7 5.32 7 6 7 C6.33 8.32 6.66 9.64 7 11 C7.66 11 8.32 11 9 11 C9.33 12.98 9.66 14.96 10 17 C10.66 17 11.32 17 12 17 C14 20 14 20 13.625 22.1875 C13.41875 22.785625 13.2125 23.38375 13 24 C12.608125 23.34 12.21625 22.68 11.8125 22 C10.79501212 20.31588214 9.76410697 18.63913983 8.6875 16.9921875 C8.23375 16.29351562 7.78 15.59484375 7.3125 14.875 C6.65701172 13.88113281 6.65701172 13.88113281 5.98828125 12.8671875 C5 11 5 11 5 8 C4.34 8 3.68 8 3 8 C3 7.01 3 6.02 3 5 C2.01 4.67 1.02 4.34 0 4 C0 2.68 0 1.36 0 0 Z " fill="#FDB042" transform="translate(131,85)"/>
<path d="M0 0 C1.32 0.33 2.64 0.66 4 1 C3.34 1 2.68 1 2 1 C2 1.99 2 2.98 2 4 C-3.28551127 6.53704541 -7.28017828 8.17468054 -13.15234375 6.3203125 C-15.11969173 5.59422625 -17.06228156 4.80181453 -19 4 C-18.67 3.01 -18.34 2.02 -18 1 C-18 1.66 -18 2.32 -18 3 C-8.96621066 4.07531017 -8.96621066 4.07531017 0 3 C0 2.01 0 1.02 0 0 Z " fill="#FDBFBB" transform="translate(102,187)"/>
<path d="M0 0 C1.98 0.99 1.98 0.99 4 2 C4 3.98 4 5.96 4 8 C4.66 8 5.32 8 6 8 C6.19118486 12.77962147 5.98834962 16.60470084 4 21 C3.01 21.33 2.02 21.66 1 22 C1.33 21.01 1.66 20.02 2 19 C2.1219395 16.50732972 2.18511037 14.05488198 2.1875 11.5625 C2.20167969 10.24378906 2.21585938 8.92507812 2.23046875 7.56640625 C2.02228903 4.3449133 1.72168766 2.66079001 0 0 Z " fill="#FC9E97" transform="translate(171,166)"/>
<path d="M0 0 C3.19813896 3.52898092 4.86912042 6.79636859 6.38671875 11.23046875 C6.98245062 13.07294974 6.98245062 13.07294974 8 15 C8.039992 16.99960012 8.04346799 19.00047242 8 21 C7.34 21 6.68 21 6 21 C6 19.02 6 17.04 6 15 C5.34 15 4.68 15 4 15 C3.87882813 14.37351563 3.75765625 13.74703125 3.6328125 13.1015625 C3.46523437 12.28429687 3.29765625 11.46703125 3.125 10.625 C2.96257812 9.81289062 2.80015625 9.00078125 2.6328125 8.1640625 C2.13341068 5.81326077 2.13341068 5.81326077 0 4 C0 2.68 0 1.36 0 0 Z " fill="#FB8A5A" transform="translate(146,116)"/>
<path d="M0 0 C0.33 0 0.66 0 1 0 C1 2.31 1 4.62 1 7 C1.66 7 2.32 7 3 7 C3 7.66 3 8.32 3 9 C5.31 9 7.62 9 10 9 C10.33 6.03 10.66 3.06 11 0 C11.66 0 12.32 0 13 0 C13.25 6.625 13.25 6.625 11 10 C8.6171875 10.29296875 8.6171875 10.29296875 5.875 10.1875 C4.96492187 10.16042969 4.05484375 10.13335937 3.1171875 10.10546875 C2.41851562 10.07066406 1.71984375 10.03585938 1 10 C-0.73252349 6.78832601 -1.2984943 4.68142974 -1 1 C-0.67 0.67 -0.34 0.34 0 0 Z " fill="#927C93" transform="translate(154,174)"/>
<path d="M0 0 C0.33 0 0.66 0 1 0 C1.05454409 2.35448675 1.0939279 4.70767875 1.125 7.0625 C1.14820313 8.37347656 1.17140625 9.68445313 1.1953125 11.03515625 C0.99417522 15.11824299 0.27165462 18.14999053 -1 22 C-1.33 22 -1.66 22 -2 22 C-2.2137731 14.31604457 -2.01670288 7.43659188 0 0 Z " fill="#FDB53F" transform="translate(202,128)"/>
<path d="M0 0 C2.69412214 2.69412214 2.99557418 5.35895642 4 9 C4.37125 9.721875 4.7425 10.44375 5.125 11.1875 C6 13 6 13 6 17 C6.66 17 7.32 17 8 17 C8 17.66 8 18.32 8 19 C6.68 18.67 5.36 18.34 4 18 C3.67 15.36 3.34 12.72 3 10 C2.34 10 1.68 10 1 10 C0.67 6.7 0.34 3.4 0 0 Z " fill="#FCAB45" transform="translate(61,178)"/>
<path d="M0 0 C6.16260282 -0.63751064 10.34849787 0.57792766 16 3 C15.67 3.99 15.34 4.98 15 6 C13.576875 5.2575 13.576875 5.2575 12.125 4.5 C7.48412567 2.47021308 2.97609428 2.72966892 -2 3 C-1.34 2.01 -0.68 1.02 0 0 Z " fill="#FB928A" transform="translate(155,160)"/>
<path d="M0 0 C0 0.99 0 1.98 0 3 C-1.65 3 -3.3 3 -5 3 C-6.32 5.31 -7.64 7.62 -9 10 C-10.32 9.67 -11.64 9.34 -13 9 C-6.90340909 -0.46022727 -6.90340909 -0.46022727 0 0 Z " fill="#FC9D4D" transform="translate(183,124)"/>
<path d="M0 0 C0.99 0.33 1.98 0.66 3 1 C3.433125 1.99 3.433125 1.99 3.875 3 C4.8553382 5.29150599 4.8553382 5.29150599 7.625 5.75 C8.40875 5.8325 9.1925 5.915 10 6 C10.33 5.34 10.66 4.68 11 4 C11.66 4 12.32 4 13 4 C11.60667426 7.36720387 10.0210714 8.9859524 7 11 C7 10.01 7 9.02 7 8 C6.401875 7.938125 5.80375 7.87625 5.1875 7.8125 C2.09660471 6.66445318 1.4119656 4.89452948 0 2 C0 1.34 0 0.68 0 0 Z " fill="#FDB240" transform="translate(60,100)"/>
<path d="M0 0 C6.91428571 0.94285714 6.91428571 0.94285714 10 3 C10.33 3.99 10.66 4.98 11 6 C10.278125 5.690625 9.55625 5.38125 8.8125 5.0625 C6.19692691 4.07439461 3.74881018 3.4712246 1 3 C-0.485 5.475 -0.485 5.475 -2 8 C-2.6875 6.25 -2.6875 6.25 -3 4 C-1.5625 1.75 -1.5625 1.75 0 0 Z " fill="#FCA946" transform="translate(117,76)"/>
<path d="M0 0 C0.33 0.66 0.66 1.32 1 2 C-0.14192783 3.14192783 -1.28449238 4.28322385 -2.4296875 5.421875 C-3.57015032 6.56801177 -4.69887306 7.72586815 -5.8203125 8.890625 C-6.43648438 9.52484375 -7.05265625 10.1590625 -7.6875 10.8125 C-8.26886719 11.41707031 -8.85023437 12.02164063 -9.44921875 12.64453125 C-11 14 -11 14 -13 14 C-11.63017895 10.8129289 -10.15774857 9.06713092 -7.4375 6.9375 C-4.80562347 4.87467786 -4.09567461 4.28702382 -3 1 C-2.01 0.67 -1.02 0.34 0 0 Z " fill="#FCB340" transform="translate(110,55)"/>
<path d="M0 0 C0.33 0 0.66 0 1 0 C1 1.65 1 3.3 1 5 C1.66 5 2.32 5 3 5 C3 4.34 3 3.68 3 3 C4.65 2.67 6.3 2.34 8 2 C8 1.34 8 0.68 8 0 C8.99 0 9.98 0 11 0 C10.67 0.99 10.34 1.98 10 3 C8.35 3.33 6.7 3.66 5 4 C4.67 4.99 4.34 5.98 4 7 C2.68 6.67 1.36 6.34 0 6 C-1.125 2.25 -1.125 2.25 0 0 Z " fill="#FC8F57" transform="translate(177,205)"/>
<path d="M0 0 C0.33 0 0.66 0 1 0 C1 4.95 1 9.9 1 15 C-2.33764093 10.54981209 -2.47659333 9.33784534 -2 4 C-1 1.5625 -1 1.5625 0 0 Z " fill="#FEE1DF" transform="translate(147,171)"/>
<path d="M0 0 C0.33 0 0.66 0 1 0 C1 2.97 1 5.94 1 9 C0.34 9 -0.32 9 -1 9 C-1 12.3 -1 15.6 -1 19 C-1.33 19 -1.66 19 -2 19 C-2.05411124 16.58303128 -2.09372278 14.16728213 -2.125 11.75 C-2.14175781 11.06808594 -2.15851563 10.38617188 -2.17578125 9.68359375 C-2.21213482 5.9391765 -2.07944349 3.17647273 0 0 Z " fill="#FC9751" transform="translate(203,141)"/>
<path d="M0 0 C0.66 3.63 1.32 7.26 2 11 C1.01 11 0.02 11 -1 11 C-1 10.01 -1 9.02 -1 8 C-1.66 8 -2.32 8 -3 8 C-3 5.69 -3 3.38 -3 1 C-1 0 -1 0 0 0 Z " fill="#DDD6DD" transform="translate(153,173)"/>
<path d="M0 0 C0.66 0 1.32 0 2 0 C4.30442525 5.92566493 6.23536928 11.89262558 8 18 C2.71358575 12.96391734 1.31323305 6.95241024 0 0 Z " fill="#FDAF42" transform="translate(145,109)"/>
<path d="M0 0 C1.22589844 0.01353516 1.22589844 0.01353516 2.4765625 0.02734375 C3.41628906 0.04474609 3.41628906 0.04474609 4.375 0.0625 C4.375 2.0425 4.375 4.0225 4.375 6.0625 C4.045 4.7425 3.715 3.4225 3.375 2.0625 C-2.17553286 2.80609673 -2.17553286 2.80609673 -7.625 4.0625 C-7.295 3.0725 -6.965 2.0825 -6.625 1.0625 C-4.21954362 -0.14022819 -2.67503047 -0.03821472 0 0 Z " fill="#FC9454" transform="translate(133.625,37.9375)"/>
<path d="M0 0 C0.8971875 0.309375 0.8971875 0.309375 1.8125 0.625 C1.1525 0.625 0.4925 0.625 -0.1875 0.625 C-0.5175 1.615 -0.8475 2.605 -1.1875 3.625 C-4.0625 5.875 -4.0625 5.875 -7.1875 7.625 C-8.1775 7.295 -9.1675 6.965 -10.1875 6.625 C-8.8125 5.125 -8.8125 5.125 -7.1875 3.625 C-6.5275 3.625 -5.8675 3.625 -5.1875 3.625 C-5.1875 2.965 -5.1875 2.305 -5.1875 1.625 C-2.1875 -0.375 -2.1875 -0.375 0 0 Z " fill="#FC9354" transform="translate(124.1875,42.375)"/>
<path d="M0 0 C0.33 0.99 0.66 1.98 1 3 C0.01 3.33 -0.98 3.66 -2 4 C-3.16666667 5.91666667 -3.16666667 5.91666667 -4 8 C-5 10 -5 10 -8.0625 11.125 C-9.031875 11.41375 -10.00125 11.7025 -11 12 C-9.65709609 7.97128826 -7.48692446 7.32461631 -4 5 C-1.67722584 2.3908613 -1.67722584 2.3908613 0 0 Z " fill="#FCA04C" transform="translate(204,188)"/>
<path d="M0 0 C2.67927341 4.01891012 2.15601248 6.24161923 2 11 C2.66 11 3.32 11 4 11 C4.33 13.64 4.66 16.28 5 19 C1.59451502 14.55806307 0.82449088 12.01400999 0.4375 6.375 C0.35371094 5.18648437 0.26992188 3.99796875 0.18359375 2.7734375 C0.12300781 1.85820312 0.06242187 0.94296875 0 0 Z " fill="#FB8A5A" transform="translate(62,172)"/>
<path d="M0 0 C2.62386487 3.06117568 3 3.73173127 3 8 C-0.91402949 6.73058503 -2.79072873 5.48832306 -5 2 C-3.68 2.33 -2.36 2.66 -1 3 C-0.67 2.01 -0.34 1.02 0 0 Z " fill="#FCA946" transform="translate(69,198)"/>
<path d="M0 0 C0.928125 0.2784375 0.928125 0.2784375 1.875 0.5625 C4.04160178 1.23686176 4.04160178 1.23686176 6 0 C6.99 0.33 7.98 0.66 9 1 C8.67 2.65 8.34 4.3 8 6 C4.08597051 4.73058503 2.20927127 3.48832306 0 0 Z " fill="#FDBB3B" transform="translate(60,196)"/>
<path d="M0 0 C1.07310858 3.27185553 0.89263102 5.42947592 0.0625 8.75 C-0.13214844 9.54921875 -0.32679688 10.3484375 -0.52734375 11.171875 C-0.68332031 11.77515625 -0.83929688 12.3784375 -1 13 C-1.33 13 -1.66 13 -2 13 C-2.05391993 11.20866022 -2.09275571 9.41686101 -2.125 7.625 C-2.14820313 6.62726563 -2.17140625 5.62953125 -2.1953125 4.6015625 C-2 2 -2 2 0 0 Z " fill="#FB825F" transform="translate(188,170)"/>
<path d="M0 0 C2.64 0 5.28 0 8 0 C8.33 1.32 8.66 2.64 9 4 C8.34 4 7.68 4 7 4 C6.67 3.34 6.34 2.68 6 2 C2.75791433 2.35049575 1.38472296 2.56221181 -0.8125 5.0625 C-1.204375 5.701875 -1.59625 6.34125 -2 7 C-1.125 2.25 -1.125 2.25 0 0 Z " fill="#FB815F" transform="translate(188,85)"/>
<path d="M0 0 C0.99 0.33 1.98 0.66 3 1 C2.0479279 2.00596297 1.08812654 3.00461563 0.125 4 C-0.40867188 4.556875 -0.94234375 5.11375 -1.4921875 5.6875 C-3 7 -3 7 -5 7 C-3.70700306 4.11562221 -2.34058637 2.12780579 0 0 Z " fill="#FB7F60" transform="translate(204,191)"/>
<path d="M0 0 C0.33 0.99 0.66 1.98 1 3 C-0.40445835 5.2636564 -2.1967913 7.0208685 -4 9 C-5.32 8.67 -6.64 8.34 -8 8 C-7.01 8 -6.02 8 -5 8 C-5 7.01 -5 6.02 -5 5 C-2.5 2.3125 -2.5 2.3125 0 0 Z " fill="#FB9088" transform="translate(109,183)"/>
<path d="M0 0 C0.99 0 1.98 0 3 0 C3 0.99 3 1.98 3 3 C3.61875 3.04125 4.2375 3.0825 4.875 3.125 C5.57625 3.41375 6.2775 3.7025 7 4 C8.25 7.0625 8.25 7.0625 9 10 C7 8.625 7 8.625 5 7 C5 6.34 5 5.68 5 5 C4.01 4.67 3.02 4.34 2 4 C0.8125 1.9375 0.8125 1.9375 0 0 Z " fill="#FDAB45" transform="translate(47,183)"/>
<path d="M0 0 C0.66 0 1.32 0 2 0 C2.92556607 2.77669822 3.19295491 4.67696895 3.25 7.5625 C3.27578125 8.34753906 3.3015625 9.13257813 3.328125 9.94140625 C3.16570312 10.96041016 3.16570312 10.96041016 3 12 C2.01 12.66 1.02 13.32 0 14 C0.08378906 13.32453125 0.16757813 12.6490625 0.25390625 11.953125 C0.35574219 11.06109375 0.45757812 10.1690625 0.5625 9.25 C0.66691406 8.36828125 0.77132812 7.4865625 0.87890625 6.578125 C0.99456676 4.11567549 0.73638695 2.33461936 0 0 Z " fill="#FCB5AF" transform="translate(107,171)"/>
<path d="M0 0 C0.99 0.33 1.98 0.66 3 1 C2.67 2.32 2.34 3.64 2 5 C-2.75 6.125 -2.75 6.125 -5 5 C-4.67 4.01 -4.34 3.02 -4 2 C-4 2.66 -4 3.32 -4 4 C-2.35 4 -0.7 4 1 4 C0.67 2.68 0.34 1.36 0 0 Z " fill="#FB865C" transform="translate(74,203)"/>
<path d="M0 0 C2.74277578 3.19990508 4.6302836 6.00499382 6 10 C5.34 10 4.68 10 4 10 C4 9.01 4 8.02 4 7 C3.01 7 2.02 7 1 7 C0.67 4.69 0.34 2.38 0 0 Z " fill="#FDB241" transform="translate(156,94)"/>
<path d="M0 0 C0.99 0.33 1.98 0.66 3 1 C3.08090971 2.62418745 3.13914995 4.24951745 3.1875 5.875 C3.22230469 6.77992188 3.25710937 7.68484375 3.29296875 8.6171875 C3.19628906 9.40351563 3.09960938 10.18984375 3 11 C2.01 11.66 1.02 12.32 0 13 C0.66 9.37 1.32 5.74 2 2 C1.34 2 0.68 2 0 2 C0 1.34 0 0.68 0 0 Z " fill="#FB8077" transform="translate(175,172)"/>
<path d="M0 0 C3.16115776 1.36983503 3.9927092 1.9890638 6 5 C5.625 7.1875 5.625 7.1875 5 9 C5 8.01 5 7.02 5 6 C4.01 5.67 3.02 5.34 2 5 C0.8125 2.4375 0.8125 2.4375 0 0 Z " fill="#FDC2BE" transform="translate(168,165)"/>
<path d="M0 0 C2.875 -0.1875 2.875 -0.1875 6 0 C6.66 0.99 7.32 1.98 8 3 C7.2575 2.814375 6.515 2.62875 5.75 2.4375 C3.05009037 2.00796892 1.55368923 2.14877026 -1 3 C-0.67 2.01 -0.34 1.02 0 0 Z " fill="#6C4E6C" transform="translate(91,172)"/>
<path d="M0 0 C2.475 0.495 2.475 0.495 5 1 C5 1.66 5 2.32 5 3 C5.66 3 6.32 3 7 3 C6.67 4.32 6.34 5.64 6 7 C1.125 2.25 1.125 2.25 0 0 Z " fill="#FDE0DE" transform="translate(99,165)"/>
<path d="M0 0 C0.33 0 0.66 0 1 0 C1.1875 3.375 1.1875 3.375 1 7 C0.01 7.66 -0.98 8.32 -2 9 C-2.20140476 5.37471432 -1.85776765 3.13498292 0 0 Z " fill="#FDB93C" transform="translate(49,104)"/>
<path d="M0 0 C1.65 0 3.3 0 5 0 C3.71937515 1.7074998 2.38232443 3.37373596 1 5 C0.34 5 -0.32 5 -1 5 C-0.67 3.35 -0.34 1.7 0 0 Z " fill="#FA605E" transform="translate(92,44)"/>
</svg>
